<svg id="linkedin-icon" xmlns="http://www.w3.org/2000/svg" xmlns:xlink="http://www.w3.org/1999/xlink" width="48" height="48" viewBox="0 0 48 48">
  <defs>
    <clipPath id="clip-path">
      <rect id="Rectangle_9" data-name="Rectangle 9" width="17.5" height="20" transform="translate(15.25 14)" fill="#fff"/>
    </clipPath>
  </defs>
  <rect id="Rectangle_8" data-name="Rectangle 8" width="48" height="48" rx="24" fill="#ffb300"/>
  <g id="Group_2" data-name="Group 2" clip-path="url(#clip-path)">
    <path id="Path_7" data-name="Path 7" d="M19.167,31.5H15.539V19.816h3.628ZM17.351,18.223a2.115,2.115,0,1,1,2.1-2.121A2.119,2.119,0,0,1,17.351,18.223ZM32.746,31.5h-3.62V25.813c0-1.355-.027-3.094-1.886-3.094-1.886,0-2.175,1.473-2.175,3V31.5H21.44V19.816h3.48V21.41h.051A3.812,3.812,0,0,1,28.4,19.524c3.672,0,4.347,2.418,4.347,5.559V31.5Z" fill="#fff"/>
  </g>
</svg>
