<svg xmlns="http://www.w3.org/2000/svg" width="48.019" height="47.999" viewBox="0 0 48.019 47.999">
    <g id="secured-tick" transform="translate(-0.002 -0.002)">
        <path id="Path_1" data-name="Path 1" d="M24.043,47.979a15.075,15.075,0,0,1-2.611-.085c-.869-.111-1.738-.247-2.6-.442a25.157,25.157,0,0,1-2.908-.838,23.62,23.62,0,0,1-5-2.479A24.164,24.164,0,0,1,2.108,33.859a23.672,23.672,0,0,1-1.426-4.1,23.16,23.16,0,0,1-.5-2.731A26.26,26.26,0,0,1,0,23.593a20.039,20.039,0,0,1,.11-2.2,24.786,24.786,0,0,1,1.546-6.2,24.112,24.112,0,0,1,15-14.066A25.08,25.08,0,0,1,20.543.218a19.913,19.913,0,0,1,3.708-.2,1.742,1.742,0,0,1,1.576,1.516,1.788,1.788,0,0,1-1.148,2.031,2.112,2.112,0,0,1-.751.159c-.533.014-1.065.012-1.6.057a21.387,21.387,0,0,0-2.982.474,19.059,19.059,0,0,0-3.092.994,19.58,19.58,0,0,0-5.565,3.465A21.677,21.677,0,0,0,7.68,11.962a20.263,20.263,0,0,0-2.552,4.585A19.344,19.344,0,0,0,4.1,19.971a21.2,21.2,0,0,0-.322,5.588,19.242,19.242,0,0,0,.425,2.873A20.211,20.211,0,0,0,8.5,37.053a20.722,20.722,0,0,0,5.137,4.382,19.91,19.91,0,0,0,4.658,2.032,24.607,24.607,0,0,0,2.412.552,19.17,19.17,0,0,0,4.445.245,19.541,19.541,0,0,0,4.545-.773A19.929,19.929,0,0,0,36.7,39.83a20.425,20.425,0,0,0,4.572-5.151A20.176,20.176,0,0,0,44.3,24.1a1.882,1.882,0,0,1,1.848-1.97A1.784,1.784,0,0,1,48,23.8a18.643,18.643,0,0,1-.19,3.571,24.529,24.529,0,0,1-1.546,5.666,24.256,24.256,0,0,1-10.84,12.094,23.45,23.45,0,0,1-5.08,2.039,25.629,25.629,0,0,1-2.949.623A17.136,17.136,0,0,1,24.043,47.979Z" fill="#fd4f66"></path>
        <path id="Path_2" data-name="Path 2" d="M13.238,19.087a1.734,1.734,0,0,1,1.414.627q2.236,2.421,4.462,4.847c1.028,1.116,2.065,2.221,3.092,3.341.155.169.246.151.393,0,1.089-1.093,2.186-2.181,3.278-3.271L39.145,11.388q2.352-2.348,4.7-4.7a2,2,0,0,1,1.531-.7,1.787,1.787,0,0,1,1.635,1.083,1.709,1.709,0,0,1-.189,1.871,24.691,24.691,0,0,1-1.877,1.936q-2.892,2.9-5.8,5.782l-5.431,5.412Q28.8,26.984,23.886,31.9a2.3,2.3,0,0,1-1.018.679,1.755,1.755,0,0,1-1.789-.413c-.612-.608-1.185-1.257-1.767-1.891q-1.9-2.054-3.8-4.112Q13.7,24.189,11.886,22.2a1.855,1.855,0,0,1,.636-2.982A2.148,2.148,0,0,1,13.238,19.087Z" fill="#fd4f66"></path>
    </g>
</svg>