<svg id="twitter" xmlns="http://www.w3.org/2000/svg" width="48" height="48" viewBox="0 0 48 48">
  <rect id="Rectangle_10" data-name="Rectangle 10" width="48" height="48" rx="24" fill="#fd4f66"/>
  <path id="Path_8" data-name="Path 8" d="M33.7,18.114a7.772,7.772,0,0,1-2.229.611,3.892,3.892,0,0,0,1.707-2.148,7.75,7.75,0,0,1-2.465.942A3.883,3.883,0,0,0,24.1,21.06,11.024,11.024,0,0,1,16.1,17a3.886,3.886,0,0,0,1.2,5.183,3.872,3.872,0,0,1-1.758-.486v.05a3.883,3.883,0,0,0,3.114,3.807,3.911,3.911,0,0,1-1.753.067,3.884,3.884,0,0,0,3.627,2.695,7.789,7.789,0,0,1-4.822,1.663,7.925,7.925,0,0,1-.927-.054,11.04,11.04,0,0,0,17-9.3c0-.167,0-.335-.012-.5A7.892,7.892,0,0,0,33.7,18.117Z" fill="#fff"/>
</svg>
