<svg id="whatsapp-icon" xmlns="http://www.w3.org/2000/svg" xmlns:xlink="http://www.w3.org/1999/xlink" width="48" height="48" viewBox="0 0 48 48">
  <defs>
    <clipPath id="clip-path">
      <rect id="Rectangle_12" data-name="Rectangle 12" width="20" height="20" transform="translate(14 14)" fill="#fff"/>
    </clipPath>
  </defs>
  <rect id="Rectangle_11" data-name="Rectangle 11" width="48" height="48" rx="24" fill="#209adb"/>
  <g id="Group_3" data-name="Group 3" clip-path="url(#clip-path)">
    <path id="Path_9" data-name="Path 9" d="M31,16.908A9.817,9.817,0,0,0,23.993,14,9.918,9.918,0,0,0,15.4,28.864L14,34l5.255-1.377a9.917,9.917,0,0,0,4.738,1.206h0a9.9,9.9,0,0,0,7-16.921ZM23.993,32.151A8.215,8.215,0,0,1,19.8,31l-.3-.18-3.118.817.833-3.041-.195-.314a8.234,8.234,0,1,1,6.975,3.867Zm4.519-6.167c-.246-.124-1.463-.723-1.691-.808s-.394-.124-.556.124-.641.807-.784.969-.29.185-.538.063a6.762,6.762,0,0,1-1.99-1.231,7.559,7.559,0,0,1-1.379-1.715c-.142-.247-.014-.38.11-.5s.246-.29.37-.433a1.579,1.579,0,0,0,.247-.412.461.461,0,0,0-.019-.434c-.062-.124-.556-1.345-.765-1.837s-.4-.419-.556-.425-.309-.009-.475-.009a.911.911,0,0,0-.661.309,2.775,2.775,0,0,0-.864,2.067,4.8,4.8,0,0,0,1.012,2.561,11.009,11.009,0,0,0,4.229,3.74,13.76,13.76,0,0,0,1.411.522,3.4,3.4,0,0,0,1.557.1,2.566,2.566,0,0,0,1.673-1.179,2.073,2.073,0,0,0,.142-1.179C28.925,26.169,28.759,26.108,28.511,25.984Z" fill="#fff"/>
  </g>
</svg>
