<svg xmlns="http://www.w3.org/2000/svg" xmlns:xlink="http://www.w3.org/1999/xlink" width="55.902" height="64" viewBox="0 0 55.902 64">
    <defs>
        <clipPath id="clip-path">
        <rect id="Rectangle_1" data-name="Rectangle 1" width="55.902" height="64" fill="#fff"></rect>
        </clipPath>
    </defs>
    <g id="Frame" clip-path="url(#clip-path)">
        <path id="Path_1" data-name="Path 1" d="M27.993,61.858H41.044c.552,0,.552,0,.552-.535V56.3a.987.987,0,1,1,1.974,0v5.02c0,.469,0,.485.5.485h9.353c.5,0,.519,0,.519-.5V52.739A.953.953,0,0,1,54.9,51.7a1.02,1.02,0,0,1,1.021,1v9.972a1,1,0,0,1-1,1.154H1.288c-.468,0-.937,0-1.171-.569a1.021,1.021,0,0,1-.1-.485V47.72A9.019,9.019,0,0,1,.8,44.239a11.611,11.611,0,0,1,2.778-4.032,12.113,12.113,0,0,1,4.852-2.761c1.255-.4,2.493-.853,3.731-1.272l5.622-1.924,1.556-.552a1.121,1.121,0,0,1,1.071.2c1.339.987,2.694,1.958,4.049,2.928.97.7,1.958,1.372,2.911,2.108a.585.585,0,0,0,.786,0L31.1,36.794c1.305-.937,2.644-1.874,3.949-2.828a1.673,1.673,0,0,1,1.573-.2l3.832,1.305,5.321,1.824c.385.134.786.268,1.154.435A.97.97,0,0,1,47.5,38.6a.987.987,0,0,1-1.272.586l-3.8-1.288c-.97-.318-.786-.469-1.372.4l-4.384,6.358-1.991,2.794a1.037,1.037,0,0,1-1.79.1L28.712,43c-.251-.268-.5-.535-.719-.8s-.335-.2-.519,0L24.5,45.444l-2.008,2.175a1,1,0,0,1-1.673-.134l-3.346-4.919-2.51-3.748c-.2-.318-.418-.619-.636-.937a.368.368,0,0,0-.5-.167c-1.974.686-3.966,1.305-5.906,2.058A9.119,9.119,0,0,0,3.43,43.486a10.842,10.842,0,0,0-1.255,2.895,8.651,8.651,0,0,0-.251,2.359V61.373c0,.468,0,.485.468.485h9.42c.452,0,.468,0,.468-.468V56.37c0-.736.368-1.188.987-1.188s1,.452,1,1.222V61.34c0,.485,0,.485.485.485Zm11.562-24.9a.434.434,0,0,0-.318-.2c-.9-.318-1.807-.6-2.694-.937a.72.72,0,0,0-.8.151,11.3,11.3,0,0,1-1.021.736L29.7,40.341c-.234.167-.318.284-.084.535,1.339,1.422,2.644,2.844,3.949,4.283.184.2.285.167.418,0l5.5-7.981ZM19.476,35.84h-.084c-.837.284-1.673.552-2.493.853s-.7.167-.268.82l2.66,4.116,2.326,3.5c.167.234.3.285.519,0s.887-.971,1.339-1.439c.82-.92,1.673-1.824,2.493-2.727.3-.351.3-.351,0-.619l-6.107-4.35a.519.519,0,0,0-.435-.151Z" fill="#fd4f66"></path>
        <path id="Path_2" data-name="Path 2" d="M43.537,15.812a15.745,15.745,0,1,1-1.182-6.054A15.778,15.778,0,0,1,43.537,15.812Zm-29.482,0a14.076,14.076,0,1,0,0-.017Z" fill="#fd4f66"></path>
        <path id="Path_3" data-name="Path 3" d="M52.1,40.458a.987.987,0,0,1,.736.335,9.221,9.221,0,0,1,1.79,2.593,1,1,0,0,1-.469,1.238.937.937,0,0,1-1.288-.334,15.929,15.929,0,0,0-1.556-2.259.9.9,0,0,1-.1-1.054.954.954,0,0,1,.887-.519Z" fill="#fd4f66"></path>
        <path id="Path_4" data-name="Path 4" d="M28.8,12.315v2.158c0,.285,0,.4.385.485a4.735,4.735,0,0,1,3.346,3.079,4.284,4.284,0,0,1-.954,4.434A4.685,4.685,0,0,1,29.2,23.927c-.234,0-.318.167-.351.418a1.037,1.037,0,0,1-1,.954.937.937,0,0,1-.987-.87c0-.4-.268-.485-.569-.586A4.551,4.551,0,0,1,23.609,21.8a4.685,4.685,0,0,1-.736-2.242,1.021,1.021,0,0,1,.82-1.1,1.071,1.071,0,0,1,1.222.954,2.86,2.86,0,0,0,1.523,2.309c.335.184.368.167.368-.217V17.167c0-.318-.117-.452-.435-.552a4.852,4.852,0,0,1-3.346-3.246A4.618,4.618,0,0,1,24.7,8.517,5.688,5.688,0,0,1,26.37,7.68a.4.4,0,0,0,.318-.4,2.482,2.482,0,0,1,0-.351,1.006,1.006,0,0,1,2.008.117.619.619,0,0,0,.519.7,4.886,4.886,0,0,1,3.246,3.346,3.58,3.58,0,0,1,.184.937,1.088,1.088,0,0,1-.887,1.171,1.071,1.071,0,0,1-1.088-.9,3.162,3.162,0,0,0-1.238-2.175c-.184-.134-.4-.368-.636-.268s0,.385,0,.6Zm-2.058-.134V10.039c0-.218,0-.318-.3-.218a2.911,2.911,0,0,0-1.673,2.359,2.761,2.761,0,0,0,1.673,2.343c.218.084.3,0,.3-.2C26.738,13.62,26.754,12.9,26.738,12.181ZM28.8,19.443v2.108c0,.217,0,.284.268.167A3.179,3.179,0,0,0,30.251,20.7a2.477,2.477,0,0,0-1.087-3.648c-.285-.167-.368-.1-.368.234Z" fill="#fd4f66"></path>
    </g>
</svg>