<svg xmlns="http://www.w3.org/2000/svg" width="64.011" height="64.007" viewBox="0 0 64.011 64.007">
    <g id="tPL93e.tif" transform="translate(-0.019)">
        <path id="Path_55" data-name="Path 55" d="M64.027,33.8V55.054a9.158,9.158,0,0,1-.789,3.974A8.472,8.472,0,0,1,55.251,64q-16.832-.022-33.694,0c-.685,0-1.018-.222-1.155-.766a.959.959,0,0,1,.844-1.177h33.6a6.945,6.945,0,0,0,4.521-1.395,6.493,6.493,0,0,0,2.462-4.07,10.245,10.245,0,0,0,.115-1.743V36.2a6.656,6.656,0,0,0-1.052-3.737,6.49,6.49,0,0,0-3.877-2.8,7.412,7.412,0,0,0-1.955-.215H39.467a8.446,8.446,0,0,1-4.906-1.624,12.425,12.425,0,0,1-3.04-3.563c-1.029-1.539-1.933-3.167-3.11-4.6a6.106,6.106,0,0,0-3.5-2.053,6.784,6.784,0,0,0-1.522-.152c-4.991,0-10-.052-14.973.026a6.173,6.173,0,0,0-5.7,3.74,6.841,6.841,0,0,0-.652,3.071V55.368a6.438,6.438,0,0,0,.844,3.223A6.372,6.372,0,0,0,7.147,61.8a9.185,9.185,0,0,0,2.025.244h8.453a.955.955,0,0,1,.989.6.944.944,0,0,1-.848,1.35c-3.358,0-6.713.044-10.067-.022a7.216,7.216,0,0,1-4.165-1.613A8.377,8.377,0,0,1,.364,57.751a10.227,10.227,0,0,1-.344-2.738V12.283A8.734,8.734,0,0,1,1.43,7.414,8.721,8.721,0,0,1,8.665,3.47q5.087-.022,10.175,0a.83.83,0,0,0,.8-.425A6.664,6.664,0,0,1,23.142.3,5.187,5.187,0,0,1,24.823,0H51.945a6.048,6.048,0,0,1,4.543,2.194,5.769,5.769,0,0,1,.889,1.243.777.777,0,0,0,.489.4A8.613,8.613,0,0,1,63.7,9.79a8.776,8.776,0,0,1,.311,2.56Zm-2.062-3.537v-.37c0-5.949.026-11.9,0-17.844a6.328,6.328,0,0,0-3.225-5.6c-.133-.085-.285-.274-.441-.159s-.022.3,0,.451a13.588,13.588,0,0,1-.041,2.771,1,1,0,0,1-1.992-.2c0-.844.03-1.683,0-2.523a5.07,5.07,0,0,0-.741-2.527A4.9,4.9,0,0,0,51.138,1.95H26.067a6.8,6.8,0,0,0-2.118.3,4.648,4.648,0,0,0-3.21,3.533,10.942,10.942,0,0,0-.093,2.438c0,.6,0,.6.611.6H41.9A7.04,7.04,0,0,1,43.64,9,6.846,6.846,0,0,1,47.269,11.2a6.431,6.431,0,0,1,1.67,4.188c.03,3.826,0,7.655,0,11.47,0,.522,0,.522.537.522h5.013c.415,0,.829,0,1.244.03.489.037.5.048.5-.44V13a1.01,1.01,0,0,1,.944-1.029,1.111,1.111,0,0,1,1.037.829,3.356,3.356,0,0,1,.082.8V27.423c0,.333.07.525.426.636a5.665,5.665,0,0,1,1.3.662,18.708,18.708,0,0,1,1.948,1.539ZM29.115,10.926H15.755a4.035,4.035,0,0,0-1.918.518A4.81,4.81,0,0,0,11.357,14.8c-.1.429-.022.525.418.525H22.609a13.794,13.794,0,0,1,2.755.263A8.146,8.146,0,0,1,30.4,18.8c.948,1.265,1.766,2.627,2.64,3.948A21.808,21.808,0,0,0,34.643,25.1a6.538,6.538,0,0,0,5.139,2.287h6.665c.33,0,.448-.118.448-.448V15.306a3.444,3.444,0,0,0-.189-1.036,4.813,4.813,0,0,0-4.591-3.359c-4.339.041-8.672.011-13,.011Zm-27.029,7.4a1.359,1.359,0,0,0,.163-.1,2.041,2.041,0,0,0,.156-.155,8.453,8.453,0,0,1,2.677-1.935,10.252,10.252,0,0,1,3.754-.818c.2,0,.37,0,.411-.285a6.818,6.818,0,0,1,2.7-4.81A6.638,6.638,0,0,1,14.87,8.957a16.622,16.622,0,0,1,2.844-.129c.818,0,.74.063.763-.74a9.628,9.628,0,0,1,.089-1.931c.111-.5.052-.551-.455-.551H8.465A6.064,6.064,0,0,0,4.34,7.215a6.473,6.473,0,0,0-2.222,5.01V17.9Z" fill="#ffb300"></path>
        <path id="Path_56" data-name="Path 56" d="M16.288,33.166h7.938a1.018,1.018,0,0,1,1.015,1.365.881.881,0,0,1-.741.633,4.92,4.92,0,0,1-.618.048H8.739a3.849,3.849,0,0,1-.581-.048.955.955,0,0,1-.878-1.021,1.022,1.022,0,0,1,1.029-.98Z" fill="#ffb300"></path>
        <path id="Path_57" data-name="Path 57" d="M16.285,38.663H8.35a.978.978,0,0,1-.955-.551.965.965,0,0,1,.1-1.066.848.848,0,0,1,.711-.37H24.19A1.029,1.029,0,0,1,25.3,37.849a.988.988,0,0,1-1.07.836H16.285Z" fill="#ffb300"></path>
        <path id="Path_58" data-name="Path 58" d="M44.566,16.413a1.35,1.35,0,0,1-.2.692l-3.906,7.3a1.054,1.054,0,0,1-1.922.181c-1.011-1.251-2.018-2.509-3.029-3.759a1.254,1.254,0,0,1-.307-.74.962.962,0,0,1,.559-.98,1.026,1.026,0,0,1,1.2.259Q38,20.623,39.015,21.892c.244.307.292.311.466-.022L42.5,16.191a3.494,3.494,0,0,1,.241-.411,1.005,1.005,0,0,1,1.822.633Z" fill="#ffb300"></path>
    </g>
</svg>