<svg xmlns="http://www.w3.org/2000/svg" width="73.989" height="63.989" viewBox="0 0 73.989 63.989">
    <g id="portfolio-mngmnt" transform="translate(0.017 0.001)">
        <path id="Path_45" data-name="Path 45" d="M37.006,11.705H68.712a5.125,5.125,0,0,1,3.68,1.366,4.594,4.594,0,0,1,1.58,3.386v11.57a4.64,4.64,0,0,1-1.75,3.386A7.212,7.212,0,0,1,68.836,32.8l-3.883.881-3.476.745-2.946.677c-.959.214-1.93.4-2.89.61l-4.21.971c-.982.226-1.964.418-2.935.643l-2.878.666c-.474.1-.948.237-1.445.3-.282,0-.339.169-.339.418v4.775a2.258,2.258,0,0,1-.327,1.129,1.49,1.49,0,0,1-1.287.734c-3.16.124-6.321,0-9.481,0a4.357,4.357,0,0,1-1.434-.124,1.7,1.7,0,0,1-1.129-1.783V38.671c0-.293-.068-.406-.4-.474-1.377-.282-2.732-.621-4.109-.937l-4.2-.926-3.025-.7-2.878-.61-2.946-.666-2.257-.474-2.686-.6-3.059-.7a6.163,6.163,0,0,1-2.9-1.3A5.248,5.248,0,0,1,.13,28.715a5.734,5.734,0,0,1-.135-1.637V16.322a4.65,4.65,0,0,1,1.592-3.386,5.2,5.2,0,0,1,3.691-1.354Zm0,3.6H4.949a1.467,1.467,0,0,0-1.388,1.422V27.756a1.321,1.321,0,0,0,.892,1.276,10.321,10.321,0,0,0,1.806.451c1,.214,1.987.451,2.98.677l2.9.643,2.811.666c.768.181,1.535.327,2.258.5l2.257.519c.745.158,1.49.3,2.257.474s1.479.35,2.257.508l2.257.485,3.544.824c.248.056.35,0,.35-.282a5.371,5.371,0,0,1,.113-1.4,1.558,1.558,0,0,1,1.411-1.129h10.61a1.547,1.547,0,0,1,1.411,1.129,4.922,4.922,0,0,1,.113,1.4c0,.26.113.339.361.282,1.129-.282,2.359-.553,3.544-.813l2.912-.632,2.1-.474c.734-.169,1.479-.35,2.257-.508s1.513-.3,2.257-.474,1.456-.35,2.19-.519l3.127-.711,3.386-.767c1.129-.248,2.257-.474,3.318-.745a1.479,1.479,0,0,0,1.129-1.49V16.785a1.354,1.354,0,0,0-.711-1.253,2.009,2.009,0,0,0-1.129-.237Zm0,26.6h2.777c.429,0,.463,0,.463-.451V35.905c0-.35-.124-.44-.451-.44H34.15c-.327,0-.463.09-.463.44v5.587c0,.327.113.429.429.429C35.1,41.9,36.058,41.91,37.006,41.91Z" fill="#209adb"></path>
        <path id="Path_46" data-name="Path 46" d="M37.006,60.377H67.042c1.275,0,1.727-.643,1.75-1.783V37.079a1.727,1.727,0,0,1,2-1.829,1.806,1.806,0,0,1,1.5,1.388,13.558,13.558,0,0,1,.1,1.783V58.379A5.44,5.44,0,0,1,71.06,62.25a4.9,4.9,0,0,1-3.567,1.682c-4.233.124-8.466,0-12.7,0H7.816a7.471,7.471,0,0,1-2.822-.316A4.966,4.966,0,0,1,1.868,60.3a8.138,8.138,0,0,1-.293-2.336V37.373a2.686,2.686,0,0,1,.271-1.264,1.806,1.806,0,0,1,1.987-.869,1.693,1.693,0,0,1,1.355,1.75V58.435a2.731,2.731,0,0,0,.226,1.129,1.434,1.434,0,0,0,1.411.813Z" fill="#209adb"></path>
        <path id="Path_47" data-name="Path 47" d="M23.427,5.937a10.045,10.045,0,0,1,.361-2.664A5.125,5.125,0,0,1,25.842.756,5.406,5.406,0,0,1,28.732,0H45.866a4.515,4.515,0,0,1,2.483.869A4.808,4.808,0,0,1,50.1,3a3.555,3.555,0,0,1,.384,1.49c0,.847.079,1.693,0,2.54A1.614,1.614,0,0,1,48.993,8.5a1.693,1.693,0,0,1-1.84-.892,2.912,2.912,0,0,1-.214-1.242,14.184,14.184,0,0,0-.079-1.693A1.309,1.309,0,0,0,45.731,3.6a5.35,5.35,0,0,0-.948-.056H28.98a2.258,2.258,0,0,0-1.129.192,1.478,1.478,0,0,0-.734,1.434,18.043,18.043,0,0,1-.068,1.908,1.693,1.693,0,0,1-1.614,1.433c-.971,0-1.625-.361-1.817-1.129A10.6,10.6,0,0,1,23.427,5.937Z" fill="#209adb"></path>
    </g>
</svg>