<svg xmlns="http://www.w3.org/2000/svg" xmlns:xlink="http://www.w3.org/1999/xlink" width="64.033" height="64" viewBox="0 0 64.033 64">
    <defs>
        <clipPath id="clip-path">
        <rect id="Rectangle_7" data-name="Rectangle 7" width="64.033" height="64" transform="translate(0.014)" fill="#fff"></rect>
        </clipPath>
    </defs>
    <g id="Frame_2_" data-name="Frame (2)" transform="translate(-0.014)" clip-path="url(#clip-path)">
        <path id="Path_64" data-name="Path 64" d="M32.259,63.984a6.89,6.89,0,0,1-5.045-2.09,16.719,16.719,0,0,1-3.853-5.747,1.959,1.959,0,0,1,3.559-1.633,25.061,25.061,0,0,0,1.633,2.824,8.9,8.9,0,0,0,1.829,2.008,2.743,2.743,0,0,0,3.673,0,10.6,10.6,0,0,0,2.5-3.135,29.388,29.388,0,0,0,2.318-5.649c.408-1.339.751-2.71,1.045-4.082.1-.473.131-.947.261-1.4,0-.212,0-.229-.2-.212-2.384.2-4.784.375-7.184.343h-1.4a.751.751,0,0,0-.424.212c-1.078,1.012-2.171,2.008-3.265,3.053a2.057,2.057,0,0,1-2.318.506,1.943,1.943,0,0,1-.718-3.037c.229-.261.49-.506.735-.751s.18-.114.114-.229-.147-.1-.229-.1a19.229,19.229,0,0,1-2.906-.261c-1.045-.131-2.106-.261-3.151-.457s-2.008-.359-3-.588-2.465-.571-3.69-.947A35.643,35.643,0,0,1,8.129,40.98a20.655,20.655,0,0,1-4.9-2.873,8.31,8.31,0,0,1-3.167-4.9,6.416,6.416,0,0,1,1.127-4.9,14.106,14.106,0,0,1,5.061-4.18,33.177,33.177,0,0,1,5.975-2.416c1.42-.441,2.873-.784,4.327-1.11,1.029-.245,2.09-.359,3.118-.62a.343.343,0,0,0,.294-.31,53.279,53.279,0,0,1,1.078-5.29,38.4,38.4,0,0,1,2.106-6.237A17.829,17.829,0,0,1,27.182,2.09,6.841,6.841,0,0,1,33.4.147a7.1,7.1,0,0,1,2.972,1.437,14.956,14.956,0,0,1,3.788,4.9.947.947,0,0,0,.571.49c1.437.539,2.89,1.078,4.326,1.633a1.926,1.926,0,0,1,1.11,2.5,1.959,1.959,0,0,1-2.58,1.159l-.963-.375c-.2,0-.261,0-.2.2.408,1.241.735,2.5,1.029,3.771s.441,2.106.62,3.151.326,2.073.457,3.118.261,2.4.376,3.592a85.5,85.5,0,0,1,.2,9.371,39.173,39.173,0,0,1-.327,4.588,2.658,2.658,0,0,0,0,.359q0,.245.245.2a49.2,49.2,0,0,0,8.065-2.237,21.063,21.063,0,0,0,4.686-2.465A6.025,6.025,0,0,0,59.8,33.257a2.6,2.6,0,0,0-.473-2.89A9.992,9.992,0,0,0,56.5,28.033,27.542,27.542,0,0,0,50.48,25.5a2.416,2.416,0,0,1-1.633-1.176A1.975,1.975,0,0,1,50.023,21.6a2.4,2.4,0,0,1,1.355,0,34.435,34.435,0,0,1,5.616,2.171,15.788,15.788,0,0,1,5.175,3.771,6.629,6.629,0,0,1,.278,8.833,13.992,13.992,0,0,1-4.1,3.412,28.942,28.942,0,0,1-5.029,2.269c-1.371.49-2.792.882-4.212,1.241s-2.58.555-3.869.833a1.519,1.519,0,0,0-.653.1.588.588,0,0,0-.473.571,33.368,33.368,0,0,1-.653,3.38,48.558,48.558,0,0,1-1.633,5.4A24.8,24.8,0,0,1,39.019,59.4a11.429,11.429,0,0,1-3.429,3.543A5.877,5.877,0,0,1,32.259,63.984Zm-6.531-23a5.345,5.345,0,0,0-.686-.865,1.971,1.971,0,0,1,3.02-2.531c.963,1.159,1.992,2.269,2.971,3.412a.8.8,0,0,0,.669.31c1.012,0,2.024-.1,3.037-.114a56.309,56.309,0,0,0,5.747-.392.294.294,0,0,0,.31-.294c.114-.9.18-1.8.261-2.694.114-1.257.131-2.514.163-3.771,0-2.5,0-5-.147-7.494a15.539,15.539,0,0,0-.2-2.123c-.1-.7-.131-1.747-.31-2.612s-.131-1.306-.261-1.943c-.261-1.372-.555-2.759-.865-4.114a13.51,13.51,0,0,0-.621-2.123c-.1.212-.179.375-.245.539a2.254,2.254,0,0,1-.751,1.029,1.959,1.959,0,0,1-2.318,0,1.927,1.927,0,0,1-.7-2.172c.588-1.437,1.208-2.873,1.829-4.31a.686.686,0,0,0,0-.686c-.229-.343-.392-.718-.62-1.061a7.608,7.608,0,0,0-2.629-2.71,2.384,2.384,0,0,0-1.535-.31,3.674,3.674,0,0,0-2.22,1.306,19.315,19.315,0,0,0-3.788,7.02,37.175,37.175,0,0,0-1.176,4.2c-.2.849-.359,1.633-.522,2.531,0,.278,0,.441.343.375s1.176-.114,1.763-.147c1.322-.1,2.645-.147,3.967-.163h4.9a1.976,1.976,0,0,1,0,3.951H30.659a60.15,60.15,0,0,0-6.857.408c-.212,0-.327,0-.343.294-.114,1.225-.294,2.449-.326,3.674,0,1.633-.163,3.135-.114,4.718v1.4A1.976,1.976,0,0,1,21.19,35.38a1.926,1.926,0,0,1-2.057-1.633,14.6,14.6,0,0,1,0-1.894c0-2.482.147-4.9.31-7.461,0-.245,0-.359-.294-.294l-2.89.637a35.653,35.653,0,0,0-4.669,1.388,21.32,21.32,0,0,0-4.2,1.959A9.518,9.518,0,0,0,4.7,30.367a2.727,2.727,0,0,0-.114,3.4,6.676,6.676,0,0,0,1.176,1.273,18.663,18.663,0,0,0,5.535,3.02,41,41,0,0,0,4.163,1.306c1.241.327,2.5.588,3.755.833.963.2,1.943.326,2.922.441a33.324,33.324,0,0,0,3.608.343Z" fill="#0cd8e7"></path>
    </g>
</svg>