<svg xmlns="http://www.w3.org/2000/svg" xmlns:xlink="http://www.w3.org/1999/xlink" width="64.03" height="64" viewBox="0 0 64.03 64">
    <defs>
        <clipPath id="clip-path">
        <rect id="Rectangle_5" data-name="Rectangle 5" width="64.03" height="64" fill="#fff"></rect>
        </clipPath>
    </defs>
    <g id="capital-placement" clip-path="url(#clip-path)">
        <path id="Path_48" data-name="Path 48" d="M10.523,44.659a11.409,11.409,0,0,1-2.664-1.631A10.066,10.066,0,0,1,4.57,37.995a.956.956,0,0,0-.9-.826A4.149,4.149,0,0,1,.909,30.478a.758.758,0,0,0,.064-.849A10.665,10.665,0,0,1,.3,22.8a8.11,8.11,0,0,1,6.376-6.067A1.487,1.487,0,0,0,7.8,15.915a6.233,6.233,0,0,1,5.735-3.543c2.5-.034,4.993-.02,7.486,0A12.452,12.452,0,0,1,32.129,29.69a.718.718,0,0,0,.111.8,4.162,4.162,0,0,1-2.785,6.694c-.366.064-.688.1-.822.587a10.238,10.238,0,0,1-5.627,6.711c-.107.054-.208.121-.393.225a15.018,15.018,0,0,1,3.181,2.258,13.311,13.311,0,0,1,4.144,8.3,53.876,53.876,0,0,1,.1,5.8c0,.567.168.768.748.748,1.379-.04,1.184.1,1.188-1.218v-8.3c0-.55.138-.768.728-.762q3.433.047,6.865,0c.621,0,.765.221.758.8-.024,2.909,0,5.822-.02,8.724,0,.57.161.765.742.745,1.312-.044,1.191.111,1.191-1.164V48.219c0-.829.04-.873.889-.873h6.61c.909,0,.916,0,.916.893V60.967c0,.819,0,.819.832.822a1.913,1.913,0,0,1,.312,0c.584.077.805-.134.788-.755-.037-1.641,0-3.285,0-4.929V44.065c0-.822,0-.839.836-.842h6.741c.765,0,.829.06.829.805V63.181c0,.631-.2.809-.829.809q-28.139-.02-56.279,0c-.617,0-.852-.164-.832-.805.07-2.429-.074-4.862.091-7.295A13.212,13.212,0,0,1,8.761,45.776C9.292,45.4,9.855,45.088,10.523,44.659Zm16.257-12.65c0-1.647-.02-3,0-4.362,0-.56-.151-.768-.738-.758-1.913.034-3.829-.054-5.738.027a12.583,12.583,0,0,1-6.9-1.805,1.721,1.721,0,0,0-.886-.238H9.342a2.909,2.909,0,0,0-2.99,3.02c0,2.493-.023,4.99,0,7.483A8.08,8.08,0,0,0,14,43.2c1.678.054,3.329.05,4.99,0a8.033,8.033,0,0,0,7.634-6.52,32.388,32.388,0,0,0,.171-4.671ZM13.516,51.568l-.1-.1c-.762.57-1.53,1.127-2.282,1.715-.409.335-.6.258-.671-.269-.178-1.507-.376-3.02-.567-4.51-.023-.181.047-.429-.158-.5s-.336.151-.46.268a10.825,10.825,0,0,0-3.8,6.62,51.151,51.151,0,0,0-.154,6.533c0,.463.3.466.634.466H27.234c.5,0,.644-.184.627-.671-.05-1.741.047-3.49-.087-5.235a11.073,11.073,0,0,0-3.879-7.694c-.148-.131-.3-.379-.507-.289s-.158.362-.181.567c-.178,1.463-.336,2.926-.53,4.389-.077.607-.181.651-.671.285-.768-.56-1.527-1.134-2.429-1.809.419,1.48.782,2.8,1.171,4.1a.852.852,0,0,1-.215.96c-1.2,1.181-2.392,2.369-3.57,3.574-.292.3-.49.265-.765,0q-1.772-1.8-3.57-3.57a.829.829,0,0,1-.238-.943C12.788,54.165,13.144,52.866,13.516,51.568ZM17.64,14.556H13.58a4.256,4.256,0,0,0-3.765,2.265,1.235,1.235,0,0,0-.037,1.3,12.112,12.112,0,0,0,2.815,3.691A10.554,10.554,0,0,0,18.9,24.67c2.413.158,4.818.03,7.231.04.453,0,.537-.164.389-.57A4.9,4.9,0,0,0,23.734,21.2c-1.523-.671-1.523-.651-.819-2.161,0-.04.037-.077.05-.114.094-.242.252-.3.5-.215a7.451,7.451,0,0,1,5.369,5.476,15.578,15.578,0,0,1,.215,4.027c0,.46.2.6.6.691s.524-.188.638-.49a10.252,10.252,0,0,0,.466-5.456,10.357,10.357,0,0,0-8.63-8.3C20.516,14.456,18.919,14.627,17.64,14.556ZM54.786,53.611v7.543c0,.49.164.671.651.644.829-.027,1.678-.04,2.493,0,.621.037.835-.158.822-.8-.034-2.057,0-4.114,0-6.171v-8.6c0-.574-.185-.772-.755-.745-.809.037-1.621.04-2.429,0-.6-.03-.789.174-.782.778C54.8,48.706,54.786,51.158,54.786,53.611Zm-6.318,2.124V50.249c0-.493-.168-.671-.651-.644-.892.027-1.785.02-2.684,0-.443,0-.638.144-.638.611V61.185c0,.466.191.621.638.611.872-.02,1.748-.034,2.617,0,.54.023.728-.151.718-.7C48.447,59.309,48.467,57.524,48.467,55.735ZM2.238,25.079A6.184,6.184,0,0,0,2.4,26.713a15.007,15.007,0,0,0,.44,1.621c.1.336.174.671.7.58s.671-.285.631-.775a4.442,4.442,0,0,1,.084-1.362,5.324,5.324,0,0,1,5.3-4.161c.158,0,.372.08.453-.1s-.117-.3-.221-.413A12.351,12.351,0,0,1,7.9,19.251a.617.617,0,0,0-.839-.369A6.183,6.183,0,0,0,2.238,25.079ZM38.126,57.762V54.336c0-.463-.171-.621-.624-.611-.913.02-1.825.017-2.738,0-.426,0-.594.151-.591.581q.02,3.46,0,6.912c0,.436.168.587.591.581.913-.02,1.829-.024,2.742,0,.453,0,.631-.151.621-.611C38.112,60.044,38.126,58.9,38.126,57.762Zm-21.586-8.1c-.2.04-.242.231-.292.406-.473,1.658-.94,3.319-1.423,4.976a.55.55,0,0,0,.158.614c.433.419.852.852,1.282,1.275.1.1.235.278.362.174a8.645,8.645,0,0,0,1.731-1.768c.037-.05,0-.164,0-.242Q17.633,52.551,16.9,50C16.841,49.826,16.778,49.662,16.539,49.662ZM4.158,32.985V31.431c0-.309-.138-.383-.436-.312A1.98,1.98,0,0,0,3.537,34.9c.406.138.641.067.627-.423s0-1.007-.007-1.5Zm24.891,0v1.557c0,.372.2.456.534.359a1.909,1.909,0,0,0,1.312-1.846,1.953,1.953,0,0,0-1.342-1.9c-.393-.118-.537,0-.527.4.034.47.023.946.023,1.423ZM12.657,46.206c-.359.114-.745.2-.671.718l.262,2.211c.044.335.211.268.43.144,1.486-.862,1.507-.936.631-2.4L13.02,46.4c-.094-.131-.185-.245-.362-.2Zm8.557.587c.094-.242-.128-.369-.376-.46s-.48-.268-.671.037c-.336.584-.95,1.134-.946,1.772,0,.527.815.728,1.238,1.114.336.3.419.144.456-.225.084-.711.195-1.439.3-2.245Zm-4.637-1.309c-.443.094-1.07-.188-1.285.2-.188.336.335.748.533,1.117.456.789,1.037.792,1.493,0,.215-.369.715-.785.533-1.121-.215-.379-.839-.1-1.275-.2Z" fill="#0cd8e7"></path>
        <path id="Path_49" data-name="Path 49" d="M49.611,0H60.654A3.083,3.083,0,0,1,64.04,3.356V19.462a3.155,3.155,0,0,1-3.355,3.356H53.823a1.074,1.074,0,0,0-1.007.5c-.614.862-1.258,1.7-1.9,2.547a2.453,2.453,0,0,1-2.805.956,2.55,2.55,0,0,1-1.738-2.423c-.07-1.57-.07-1.57-1.651-1.57H38.542a3.241,3.241,0,0,1-3.513-3.5q-.02-6.147,0-12.288a31.681,31.681,0,0,1,.077-4.3A3.05,3.05,0,0,1,38.246.034Q43.924,0,49.611,0Zm-.047,2.2H38.7c-1.174,0-1.406.225-1.406,1.369v15.6c0,1.174.255,1.429,1.426,1.433h9.171c.587,0,.765.211.752.762-.027.913,0,1.829,0,2.745,0,.2-.044.46.2.537s.356-.171.477-.336c.762-1.007,1.537-2.013,2.265-3.053a1.389,1.389,0,0,1,1.292-.671c2.537.03,5.074,0,7.61,0,1.044,0,1.342-.3,1.342-1.342V3.517c0-1.1-.258-1.342-1.366-1.342Z" fill="#0cd8e7"></path>
        <path id="Path_50" data-name="Path 50" d="M57.229,33.236a3.693,3.693,0,0,0-1.289-.1c-1.892,0-3.782-.02-5.674,0-.581,0-.822-.161-.8-.778.05-1.678-.208-1.49,1.507-1.493H59.7a1.184,1.184,0,0,1,1.154.7,1.208,1.208,0,0,1-.309,1.319,42,42,0,0,1-3.943,3.9A57.411,57.411,0,0,1,37.606,48c-1.567.554-3.164,1.007-4.778,1.423-.44.107-.631.02-.752-.436-.406-1.513-.426-1.523,1.07-1.93A55.412,55.412,0,0,0,56.3,34.062C56.575,33.817,56.856,33.572,57.229,33.236Z" fill="#0cd8e7"></path>
        <path id="Path_51" data-name="Path 51" d="M16.6,34.988c1.493,0,2.99.017,4.483,0,.57,0,.752.2.755.765a5.321,5.321,0,0,1-4.658,5.557,5.233,5.233,0,0,1-5.765-4.476c-.04-.393-.06-.785-.091-1.178-.037-.48.191-.671.671-.671C13.523,34.995,15.05,34.988,16.6,34.988Zm0,2.258H14.355c-.486,0-.53.164-.289.554a3.045,3.045,0,0,0,4.98.017c.282-.443.225-.557-.336-.567-.688,0-1.4,0-2.1,0Z" fill="#0cd8e7"></path>
        <path id="Path_52" data-name="Path 52" d="M24.69,33.126c-.557.1-.973-.03-1.148-.805a1.832,1.832,0,0,0-1.8-1.282A1.872,1.872,0,0,0,19.9,32.344c-.168.8-.594.805-1.2.792-1.262-.027-1.342-.111-.983-1.315a4.194,4.194,0,0,1,8.184.715c.05.409-.074.594-.483.59Z" fill="#0cd8e7"></path>
        <path id="Path_53" data-name="Path 53" d="M8.473,33.129c-1.319,0-1.409-.128-1.06-1.292a4.174,4.174,0,0,1,4.308-2.98,4.251,4.251,0,0,1,3.835,3.453c.127.671.02.819-.671.832h-.436c-.627.077-1.027-.057-1.2-.785A1.818,1.818,0,0,0,11.4,31.052a1.817,1.817,0,0,0-1.8,1.292C9.443,33.116,9.01,33.22,8.473,33.129Z" fill="#0cd8e7"></path>
        <path id="Path_54" data-name="Path 54" d="M46.609,13.365a.948.948,0,0,1,1.188.641c.1.285.433.366.742.366h2.013a.93.93,0,0,0,.141-1.852,13.113,13.113,0,0,0-2.117-.06A3.134,3.134,0,0,1,47.9,6.251a.651.651,0,0,0,.6-.758c0-1.382,0-1.359,1.4-1.382.584,0,.866.158.789.772a3.5,3.5,0,0,0,0,.5c-.067.523.128.758.671.9A3.077,3.077,0,0,1,53.742,8.8c.094.45-.064.628-.5.621H52.3A.735.735,0,0,1,51.44,8.9a.913.913,0,0,0-.913-.547,16.538,16.538,0,0,0-1.869,0,1,1,0,0,0-1.05,1.007c.03.527.446.862,1.144.889a14.648,14.648,0,0,1,2.49.091A3.228,3.228,0,0,1,53.8,13.4a3.171,3.171,0,0,1-2.557,3.117c-.477.091-.547.312-.55.715,0,1.58.269,1.413-1.483,1.443-.547,0-.775-.181-.711-.721V17.58c.087-.638-.067-.983-.812-1.138a2.9,2.9,0,0,1-2.181-2.184c-.228-.755-.121-.889.648-.9Z" fill="#0cd8e7"></path>
    </g>
</svg>