<svg xmlns="http://www.w3.org/2000/svg" xmlns:xlink="http://www.w3.org/1999/xlink" width="63.97" height="64" viewBox="0 0 63.97 64">
    <defs>
        <clipPath id="clip-path">
        <rect id="Rectangle_2" data-name="Rectangle 2" width="63.97" height="64" transform="translate(0.515)" fill="#fff"></rect>
        </clipPath>
    </defs>
    <g id="Access_Exclusive_Content" data-name="Access Exclusive Content" transform="translate(-0.515)" clip-path="url(#clip-path)">
        <path id="Path_29" data-name="Path 29" d="M.525,32.005V14.55A6.325,6.325,0,0,1,3.089,9.381,6.133,6.133,0,0,1,5.844,8.114a8.708,8.708,0,0,1,1.689-.141h3.218c.261,0,.372-.08.362-.342s0-.493,0-.734a1.528,1.528,0,0,1,1.639-1.649h3.479a.443.443,0,0,0,.493-.372A6.546,6.546,0,0,1,20.494.533a6.968,6.968,0,0,1,6.315.493,6.616,6.616,0,0,1,2.765,3.529l.06.161c.181.523.181.523.754.523h3.187a1.76,1.76,0,0,1,1.086.332A1.68,1.68,0,0,1,35.3,6.878v.674c0,.4,0,.412.432.412h3.449a6.6,6.6,0,0,1,5.41,2.755,6.818,6.818,0,0,1,1.237,2.926,8.4,8.4,0,0,1,.09,1.418v7.561a1.538,1.538,0,0,1-1.488,1.468,1.438,1.438,0,0,1-1.368-1.378V14.821a3.961,3.961,0,0,0-2.574-3.781,3.481,3.481,0,0,0-1.156-.231h-3.69c-.292,0-.372.111-.362.382a5.611,5.611,0,0,1-.241,2.081,4.022,4.022,0,0,1-2.856,2.715,2.866,2.866,0,0,1-.824.111H14.974a3.811,3.811,0,0,1-3.268-1.931,4.635,4.635,0,0,1-.613-2.805c0-.533,0-.533-.523-.533h-3.4a3.881,3.881,0,0,0-3.69,2.665A3.348,3.348,0,0,0,3.32,14.63v34.8a3.871,3.871,0,0,0,2.825,3.63,5.612,5.612,0,0,0,1.287.141H25.592a1.789,1.789,0,0,1,1.136.352,1.317,1.317,0,0,1,.5,1.3c-.271.835-.633,1.156-1.317,1.156H6.779a6.214,6.214,0,0,1-3.972-1.589A6.446,6.446,0,0,1,1.068,52.1a5.922,5.922,0,0,1-.553-2.464V32.015ZM23.149,13.252h7.964a1.076,1.076,0,0,0,.533-.07,1.387,1.387,0,0,0,.8-1.327v-3.4c0-.282-.1-.362-.372-.352h-3.62a1.448,1.448,0,0,1-1.4-1.378,5.018,5.018,0,0,0-.1-.865,3.82,3.82,0,0,0-1.85-2.534,3.931,3.931,0,0,0-2.292-.473,3.117,3.117,0,0,0-1.478.422,3.911,3.911,0,0,0-2.011,3.4A1.367,1.367,0,0,1,17.85,8.1H14.431c-.422,0-.422,0-.422.412v3.449A1.176,1.176,0,0,0,15.3,13.252Z" fill="#fd4f66"></path>
        <path id="Path_30" data-name="Path 30" d="M64.485,46.655a17.365,17.365,0,1,1-5.3-12.518,16.781,16.781,0,0,1,5.3,12.518ZM45.38,61.174c5.832,0,9.281-1.458,12.066-4.3a13.977,13.977,0,0,0,4.2-10.206,14.54,14.54,0,1,0-29.069,0,13.967,13.967,0,0,0,4.7,10.7c2.775,2.514,6.063,3.821,8.064,3.811Z" fill="#fd4f66"></path>
        <path id="Path_31" data-name="Path 31" d="M23.169,24.092H9.9a1.489,1.489,0,0,1-.935-.322,1.368,1.368,0,0,1-.452-1.488,1.206,1.206,0,0,1,1.005-.935,2.855,2.855,0,0,1,.824-.1H36.281a1.569,1.569,0,0,1,1.579,1.005,1.438,1.438,0,0,1-1.2,1.86H23.169Z" fill="#fd4f66"></path>
        <path id="Path_32" data-name="Path 32" d="M19.167,32.045H9.806a1.2,1.2,0,0,1-1.176-.694,1.418,1.418,0,0,1,1.176-2.1h18.5a1.5,1.5,0,0,1,1.327.613,1.408,1.408,0,0,1-.674,2.152,1.628,1.628,0,0,1-.543,0Z" fill="#fd4f66"></path>
        <path id="Path_33" data-name="Path 33" d="M16.523,40.049h-6.7a1.4,1.4,0,0,1-.332-2.755,2.929,2.929,0,0,1,.774-.1H22.928a1.519,1.519,0,0,1,1.538.915,1.388,1.388,0,0,1-1.2,1.931Z" fill="#fd4f66"></path>
        <path id="Path_34" data-name="Path 34" d="M48.507,49.33v5.339a1.337,1.337,0,0,1-1.066,1.317,1.378,1.378,0,0,1-1.689-1.005,2.855,2.855,0,0,1-.1-.825V44.192a1.518,1.518,0,0,1,1.005-1.559,1.388,1.388,0,0,1,1.83,1.217C48.518,45.68,48.507,47.51,48.507,49.33Z" fill="#fd4f66"></path>
        <path id="Path_35" data-name="Path 35" d="M48.508,38.682A1.327,1.327,0,0,1,47.1,40.049a1.409,1.409,0,1,1,.03-2.815,1.327,1.327,0,0,1,1.378,1.448Z" fill="#fd4f66"></path>
    </g>
</svg>