<svg xmlns="http://www.w3.org/2000/svg" xmlns:xlink="http://www.w3.org/1999/xlink" width="63.984" height="64" viewBox="0 0 63.984 64">
    <defs>
        <clipPath id="clip-path">
        <rect id="Rectangle_6" data-name="Rectangle 6" width="63.984" height="64" transform="translate(0.03)" fill="#fff"></rect>
        </clipPath>
    </defs>
    <g id="Frame_1_" data-name="Frame (1)" transform="translate(-0.03)" clip-path="url(#clip-path)">
        <path id="Path_59" data-name="Path 59" d="M40.426,64H17.709a5.092,5.092,0,0,1-4.878-3.086,4.45,4.45,0,0,1-.461-1.978V42.269a3.033,3.033,0,0,1,1.1-2.378.4.4,0,0,0,.133-.59,1.921,1.921,0,0,1-.174-.906c0-1.072-.024-2.144,0-3.215a.57.57,0,0,0-.51-.667A15.98,15.98,0,0,1,9.062,32.95a16.855,16.855,0,0,1-4.32-3.361A17.391,17.391,0,0,1,.7,22.532a19.3,19.3,0,0,1-.55-2.645,18.948,18.948,0,0,1-.109-3.28A16.048,16.048,0,0,1,1.466,10.54,17.46,17.46,0,0,1,8.483,2.524,17.9,17.9,0,0,1,13.842.376,18.471,18.471,0,0,1,19.233.044a15.773,15.773,0,0,1,5.44,1.407A17.674,17.674,0,0,1,35.153,18.993a16.638,16.638,0,0,1-.979,4.481,17.95,17.95,0,0,1-3.118,5.4c-.174.206-.348.4-.542.607a.391.391,0,0,0,0,.623c.942,1.011,1.868,2.022,2.8,3.058.667.736,1.335,1.472,1.99,2.22a.461.461,0,0,0,.655.125,4.853,4.853,0,0,1,4.449,0c.38.19.562.1.829-.2,1.112-1.242,2.245-2.455,3.381-3.668q1.27-1.359,2.544-2.714a.849.849,0,0,0,.255-.655q-.024-1.375,0-2.754a2.661,2.661,0,0,0-1.246-2.427,8.927,8.927,0,0,1-3.64-5.335,9.233,9.233,0,0,1,1.893-8.239,9.5,9.5,0,0,1,4.3-2.924,8.9,8.9,0,0,1,4.089-.38,9.173,9.173,0,0,1,5.687,2.948,9.39,9.39,0,0,1,.865,11.6,8.933,8.933,0,0,1-2.548,2.516A2.281,2.281,0,0,0,55.775,25.3c-.024.93-.032,1.86,0,2.791a3.1,3.1,0,0,1-2.92,2.96c-.809.028-1.618,0-2.427,0a2.829,2.829,0,0,1-1.326-.384.4.4,0,0,0-.538.1q-2.293,2.475-4.59,4.938c-.4.445-.809.906-1.213,1.339a.3.3,0,0,0-.045.457A5.232,5.232,0,0,1,33.875,43.1a5.065,5.065,0,0,1-.105-5.537.5.5,0,0,0-.085-.7c-1.476-1.618-2.94-3.236-4.421-4.825-.206-.222-.328-.6-.659-.615s-.481.319-.724.485a17.391,17.391,0,0,1-5.569,2.568.611.611,0,0,0-.55.716c.045.93,0,1.86,0,2.791a2.909,2.909,0,0,1-.214,1.363c-.109.222-.028.376.158.534a2.985,2.985,0,0,1,1.08,2.427q-.028,8.239,0,16.477a4.915,4.915,0,0,1-.736,2.686c-.2.324-.085.344.21.34h2.055c.348,0,.441-.117.441-.449V45.97c0-.671,0-.671.688-.671h6.981c.667,0,.667,0,.667.651V61.225c0,.574,0,.574.57.574h1.007c.251,0,.356-.105.344-.348V48c0-.619,0-.623.623-.623h7.058c.7,0,.7,0,.7.692V61.209c0,.586,0,.586.6.586h.971c.243,0,.364-.085.352-.34V37.715c0-.663,0-.663.655-.663h7.171c.554,0,.558,0,.558.566V61.169c0,.627,0,.627.639.627h.93c.243,0,.368-.081.352-.336V33.314c0-.23.113-.332.34-.324H63.48c.506,0,.526.02.526.522V63.478c0,.514-.032.538-.6.538ZM2.23,17.533A15.326,15.326,0,0,0,17.6,32.926,15.349,15.349,0,0,0,17.64,2.233,15.345,15.345,0,0,0,2.23,17.533Zm50.463,4.044v2.75c0,.251.081.4.356.4s.518.093.57-.323a3.931,3.931,0,0,1,1.759-2.831A7.252,7.252,0,0,0,57.842,18.9a6.876,6.876,0,0,0,.1-6.5,7.042,7.042,0,0,0-7.685-3.83A6.937,6.937,0,0,0,45.4,12.069a7.05,7.05,0,0,0,2.14,9.327,4.449,4.449,0,0,1,2.022,2.948c.089.469.376.4.68.4.38,0,.267-.319.271-.526V19.183a.854.854,0,0,0-.5-.878,3.1,3.1,0,0,1-1.238-4.214,3.159,3.159,0,0,1,4.287-1.327,2.969,2.969,0,0,1,1.618,2.229,3.094,3.094,0,0,1-1.65,3.381.623.623,0,0,0-.36.647c.032.809.024,1.674.024,2.54ZM20.6,50.645V42.584a1.109,1.109,0,0,0-1.266-1.262H16c-1.052,0-1.436.4-1.436,1.456V58.006a6.873,6.873,0,0,0,.113,1.347,2.981,2.981,0,0,0,4.995,1.577,3.041,3.041,0,0,0,.926-2.342q.008-3.988,0-7.96ZM57.81,48.473V61.339c0,.36.089.5.473.493,1.031-.024,2.067,0,3.1,0,.348,0,.441-.113.441-.449V35.616c0-.348-.121-.449-.453-.445H58.348c-.53,0-.534,0-.534.546ZM47.5,50.572V61.343c0,.364.1.5.477.489,1.031-.024,2.067,0,3.1,0,.307,0,.441-.073.437-.4v-21.7c0-.348-.133-.441-.457-.433H48.075c-.566,0-.566,0-.566.587ZM26.938,54.617v6.746c0,.332.105.453.445.449h3.062c.328,0,.461-.089.457-.437V47.923c0-.356-.142-.437-.461-.433H27.456c-.506,0-.514,0-.514.53Zm14.261,1.1V50.022c0-.332-.105-.457-.445-.453H37.616c-.316,0-.429.1-.429.425V61.383c0,.319.1.429.4.4,1.035,0,2.067-.024,3.1,0,.4,0,.5-.138.493-.514.016-1.832.024-3.693.024-5.553Zm0-15.47a3.055,3.055,0,0,0-3.005-3.033A2.92,2.92,0,0,0,35.2,40.2,2.892,2.892,0,0,0,38.182,43.2,2.971,2.971,0,0,0,41.2,40.251ZM19.577,36.736V35.381c0-.222-.049-.324-.311-.3a15.775,15.775,0,0,1-3.357,0c-.231-.024-.336,0-.336.271V37.99a1.048,1.048,0,0,0,1.157,1.12h1.784a.987.987,0,0,0,1.043-1.052c.036-.441.024-.878.024-1.319Zm32-9.852H50.437c-.882,0-.837-.174-.809.87a.935.935,0,0,0,.74,1,5.615,5.615,0,0,0,2.427,0c.594-.125.776-.457.809-1.072v-.429c0-.279-.093-.4-.38-.4-.582.049-1.112.036-1.642.036Zm-.028-12.315a1.064,1.064,0,0,0-.918.95.991.991,0,0,0,.967.922.938.938,0,0,0,.906-.967,1.019,1.019,0,0,0-.951-.9Z" fill="#fd4f66"></path>
        <path id="Path_60" data-name="Path 60" d="M44.1,6.528a.328.328,0,0,1-.13.255c-.372.372-.752.74-1.116,1.124a.289.289,0,0,1-.485,0L39.638,5.173c-.17-.17-.2-.307,0-.485.4-.364.756-.74,1.124-1.12a.276.276,0,0,1,.457,0l2.746,2.758A1.282,1.282,0,0,1,44.1,6.528Z" fill="#fd4f66"></path>
        <path id="Path_61" data-name="Path 61" d="M63.658,4.922a.433.433,0,0,1-.166.259c-.894.894-1.792,1.784-2.677,2.686-.2.2-.348.218-.546,0-.3-.315-.623-.615-.93-.926-.4-.4-.4-.4,0-.809q1.137-1.141,2.273-2.269c.6-.6.481-.623,1.145.036.239.235.481.465.716.708C63.557,4.72,63.654,4.8,63.658,4.922Z" fill="#fd4f66"></path>
        <path id="Path_62" data-name="Path 62" d="M50.505,2.119V.421c0-.279.1-.4.4-.4h1.428c.267,0,.376.117.376.372V3.866c0,.255-.109.376-.376.372H50.869c-.247,0-.344-.109-.344-.352C50.509,3.3,50.505,2.706,50.505,2.119Z" fill="#fd4f66"></path>
        <path id="Path_63" data-name="Path 63" d="M17.615,4.142A13.427,13.427,0,1,1,4.127,17.488,13.472,13.472,0,0,1,17.615,4.142Zm0,4.138a7.183,7.183,0,0,1,.886,0,3.841,3.841,0,0,1,.809.218,5.258,5.258,0,0,1,2.241,8.356c-.218.251-.174.332.109.445a9.8,9.8,0,0,1,2.718,1.687A10.448,10.448,0,0,1,27.156,22.8c.036.089.032.231.166.231s.129-.113.174-.19a10.321,10.321,0,0,0,.995-2.633,10.838,10.838,0,0,0,.263-3.721,12.893,12.893,0,0,0-.562-2.641,11.221,11.221,0,0,0-21.78,4.5,11.159,11.159,0,0,0,1.242,4.4c.049.1.077.243.218.243s.146-.158.19-.259a10.374,10.374,0,0,1,5.488-5.464c.311-.133.291-.2.089-.429A5.051,5.051,0,0,1,12.5,12.3a5.141,5.141,0,0,1,5.116-4.024Zm1.068,17.472v2.556c0,.364.146.465.465.4.441-.081.894-.142,1.323-.263a11.8,11.8,0,0,0,4.8-2.657.809.809,0,0,0,.251-.9c-.028-.109-.077-.218-.109-.328a8.153,8.153,0,0,0-2.957-4.247c-.19-.154-.307-.125-.429.077a5.189,5.189,0,0,1-3.013,2.289.4.4,0,0,0-.336.469c.008.857,0,1.723,0,2.588Zm-2.192,0v-2.6a.4.4,0,0,0-.307-.461,5.258,5.258,0,0,1-3.009-2.3c-.121-.194-.235-.214-.4-.077-.3.251-.611.477-.886.752A8.355,8.355,0,0,0,9.7,24.93a.865.865,0,0,0,.3.93,11.608,11.608,0,0,0,5.994,2.86c.4.069.494,0,.5-.449,0-.857,0-1.7,0-2.54ZM20.6,13.444a3.018,3.018,0,0,0-2.981-3.005,2.915,2.915,0,0,0-3.009,3.005,2.932,2.932,0,0,0,3.009,3,3.025,3.025,0,0,0,2.981-3ZM17.619,20.57a2.746,2.746,0,0,0,2.354-1.157c.17-.2.15-.3-.125-.4a8.249,8.249,0,0,0-1.707-.3,7.343,7.343,0,0,0-2.779.3c-.324.085-.271.243-.105.441a2.8,2.8,0,0,0,2.362,1.136Z" fill="#fd4f66"></path>
    </g>
</svg>