<svg xmlns="http://www.w3.org/2000/svg" xmlns:xlink="http://www.w3.org/1999/xlink" width="64.024" height="64" viewBox="0 0 64.024 64">
    <defs>
        <clipPath id="clip-path">
        <rect id="Rectangle_10" data-name="Rectangle 10" width="64.024" height="64" transform="translate(0 0)" fill="#fff"></rect>
        </clipPath>
    </defs>
    <g id="Frame_3_" data-name="Frame (3)" transform="translate(0 0)" clip-path="url(#clip-path)">
        <path id="Path_67" data-name="Path 67" d="M33.09,53.215v.877a.45.45,0,0,0,.379.545A4.481,4.481,0,0,1,36.053,56.6a4.551,4.551,0,0,1,.664,3.579,4.741,4.741,0,1,1-6.21-5.523c.379-.118.5-.261.474-.64s0-1.209,0-1.8,0-.332-.356-.355a18.557,18.557,0,0,1-4.385-.806A20.007,20.007,0,0,1,20.1,47.953L18.915,47c-.166-.142-.284-.142-.427,0C17,48.5,15.526,49.991,14.032,51.461a.379.379,0,0,0,0,.545,5.831,5.831,0,0,1,.545,5.191A5.926,5.926,0,0,1,10.5,61.013a5.285,5.285,0,0,1-2.37.213A6.233,6.233,0,0,1,4.977,59.9,5.9,5.9,0,0,1,2.891,56.6a6.044,6.044,0,0,1,6.779-7.419,5.024,5.024,0,0,1,2.37.853.4.4,0,0,0,.616,0L15.644,47l1.4-1.351c.19-.19.166-.308,0-.5a19.745,19.745,0,0,1-3.887-6.779,21.335,21.335,0,0,1-.711-2.679,14.221,14.221,0,0,1-.285-2.228c0-.284,0-.379-.379-.379H9.931c-.308,0-.45.119-.5.379a4.741,4.741,0,0,1-9.173,0,4.741,4.741,0,0,1,3.887-6.163,4.741,4.741,0,0,1,5.12,2.916c.379.948,0,.759,1.138.782h1.422c.213,0,.308,0,.332-.308a21.492,21.492,0,0,1,.616-3.627,19.633,19.633,0,0,1,2.038-5.025,17.706,17.706,0,0,1,2.228-3.058c.19-.19.19-.308,0-.5L12.634,14.08a.379.379,0,0,0-.569,0,5.428,5.428,0,0,1-2.844.877,6.031,6.031,0,0,1-4.5-10.43A5.855,5.855,0,0,1,7.253,3.105a1.043,1.043,0,0,1,1.114.474A1,1,0,0,1,8.2,4.812a1.067,1.067,0,0,1-.5.284A4.03,4.03,0,1,0,12.3,11a3.839,3.839,0,0,0,.593-2.015,3.911,3.911,0,0,0-.83-2.37,4.886,4.886,0,0,0-.782-.782,1.161,1.161,0,0,1-.616-1.019,1,1,0,0,1,1.422-.877,4.5,4.5,0,0,1,1.778,1.683,5.9,5.9,0,0,1,.142,6.613.432.432,0,0,0,0,.569l4.361,4.361c.166.166.308.261.545,0A19.577,19.577,0,0,1,23.8,14.009a18.318,18.318,0,0,1,3.7-1.233,20.286,20.286,0,0,1,3.153-.5c.213,0,.285,0,.285-.284V9.932c0-.261-.166-.332-.356-.379a4.741,4.741,0,0,1-3.01-2.773,4.792,4.792,0,1,1,8.96-3.39,4.741,4.741,0,0,1-3.105,6.139.45.45,0,0,0-.379.5v1.92c0,.213,0,.332.284.332a22.525,22.525,0,0,1,2.536.356A20.106,20.106,0,0,1,41.2,14.507a20.338,20.338,0,0,1,3.864,2.655c.213.19.355.166.521,0,.924-1.043,1.991-1.92,2.916-2.963.45-.474.972-.948,1.446-1.4a.379.379,0,0,0,0-.593,5.689,5.689,0,0,1-.853-4.053,5.925,5.925,0,0,1,2.939-4.361,5.807,5.807,0,0,1,3.793-.782,5.666,5.666,0,0,1,3.84,2.039,6.044,6.044,0,0,1-7.49,9.268c-.616-.332-.474-.427-1.067.142L46.98,18.584c-.213.213-.213.356,0,.593a19.53,19.53,0,0,1,3.508,5.831,18.248,18.248,0,0,1,1.28,5.831c0,.237,0,.308.332.308h1.92a.427.427,0,0,0,.521-.379,4.551,4.551,0,0,1,1.778-2.37,4.741,4.741,0,0,1,3.816-.782,4.5,4.5,0,0,1,3.556,3.224,4.8,4.8,0,0,1-8.273,4.527,4.243,4.243,0,0,1-.853-1.612c0-.332-.237-.474-.593-.45H52.124c-.261,0-.356,0-.356.356a17.614,17.614,0,0,1-.806,4.433A20.338,20.338,0,0,1,47.146,45.2c-.427.522-.427.521,0,1,1.375,1.375,2.75,2.726,4.1,4.124a.427.427,0,0,0,.64,0,5.95,5.95,0,0,1,4.1-.853,4.741,4.741,0,0,1,1.351.379,1.09,1.09,0,0,1,.5,1.3,1.019,1.019,0,0,1-1.232.616,4.244,4.244,0,0,0-1.422-.308,4.2,4.2,0,0,0-2.133.521,3.888,3.888,0,0,0-1.873,2.37,4.006,4.006,0,1,0,7.751,2.015,4.456,4.456,0,0,0,0-2.37,1.019,1.019,0,0,1,.687-1.233.972.972,0,0,1,1.185.474,4.077,4.077,0,0,1,.379,1.493,6.163,6.163,0,0,1-4.361,6.424,5.357,5.357,0,0,1-1.73.237,6.139,6.139,0,0,1-3.793-1.375,5.855,5.855,0,0,1-2.157-3.793,5.76,5.76,0,0,1,.83-4.03.451.451,0,0,0,0-.664l-4.29-4.29c-.308-.285-.308-.285-.64,0a19.912,19.912,0,0,1-6.756,3.84,18.387,18.387,0,0,1-3.887.853,7.1,7.1,0,0,1-1.019,0c-.19,0-.285,0-.285.308v.972ZM32.047,14.1a17.653,17.653,0,1,0,.118,0ZM59.211,8.818a4.006,4.006,0,1,0-1.173,2.833A4.006,4.006,0,0,0,59.211,8.818ZM4.859,55.159a4.006,4.006,0,1,0,1.173-2.833A4.006,4.006,0,0,0,4.859,55.159Zm27.188,1.327a2.749,2.749,0,1,0,1.944.805A2.75,2.75,0,0,0,32.047,56.486ZM4.835,29.322a2.726,2.726,0,1,0,1.049.21A2.726,2.726,0,0,0,4.835,29.322Zm51.674,2.726a2.75,2.75,0,1,0,.805-1.944A2.75,2.75,0,0,0,56.509,32.048ZM29.3,4.836a2.75,2.75,0,1,0,2.726-2.75,2.7,2.7,0,0,0-2.726,2.7Z" fill="#ffb300"></path>
        <path id="Path_68" data-name="Path 68" d="M37.167,30.933a10.328,10.328,0,0,1,1.351.142,6.116,6.116,0,0,1,3.556,1.9,6.424,6.424,0,0,1,1.588,4.551v4.741a1.138,1.138,0,0,1-1.3,1.28H34.394a1.09,1.09,0,0,1-1.067-.569,1.019,1.019,0,0,1,.853-1.493h1.778c.285,0,.379-.119.356-.379s0-.758,0-1.138a1.019,1.019,0,0,1,.735-.972,1.091,1.091,0,0,1,1.185.5,1.255,1.255,0,0,1,0,.4V41.15c0,.4,0,.332.332.332H41.2c.213,0,.308,0,.308-.308v-4.6a3.7,3.7,0,0,0-1.4-2.679,4.148,4.148,0,0,0-2.845-.972H26.619a4.077,4.077,0,0,0-2.655.877,4.03,4.03,0,0,0-1.422,2.2,5.009,5.009,0,0,0,0,1.185v3.982c0,.332,0,.45.4.45h2.513c.261,0,.356,0,.356-.355a10.65,10.65,0,0,1,0-1.233.972.972,0,0,1,1.944,0v1.256c0,.427,0,.332.356.332H29.8a1.043,1.043,0,0,1,1.114,1.019,1.019,1.019,0,0,1-1.09,1.043h-8.2a1.114,1.114,0,0,1-1.185-1.138V36.717a6,6,0,0,1,2.37-4.456,6.234,6.234,0,0,1,2.7-1.138A5.488,5.488,0,0,0,26.856,31a7.3,7.3,0,0,1-2.133-6.281A6.946,6.946,0,0,1,27.5,19.982a7.316,7.316,0,0,1,9.671,10.951Zm-5-10.453a5.256,5.256,0,1,0,5.31,5.239,5.167,5.167,0,0,0-5.31-5.239Z" fill="#ffb300"></path>
    </g>
</svg>