<svg xmlns="http://www.w3.org/2000/svg" width="71.84" height="72.021" viewBox="0 0 71.84 72.021">
    <g id="IGjHNx.tif" transform="translate(-0.015 -0.008)">
        <path id="Path_11" data-name="Path 11" d="M54.8,26.362c.15,0,.2-.139.289-.214l7.59-7.547a1.454,1.454,0,0,1,2.288,0q3.207,3.143,6.3,6.307a1.422,1.422,0,0,1,0,2.309L55.227,43.253a1.357,1.357,0,0,0-.449,1.069V70.386a1.84,1.84,0,0,1-.577,1.433.727.727,0,0,1-.492.2H1.539a1.358,1.358,0,0,1-1.347-.716,1.583,1.583,0,0,1-.171-.631V1.71A2.053,2.053,0,0,1,.267.556.984.984,0,0,1,1.144.011H40.463a2.064,2.064,0,0,1,1.625.674c2.523,2.555,5.067,5.1,7.6,7.644L54.2,12.871a1.914,1.914,0,0,1,.577,1.433V25.946A.518.518,0,0,0,54.8,26.362ZM38.87,53.42v.075h4.543a4.781,4.781,0,0,1,.877.075,1.283,1.283,0,0,1,1.069,1.165,1.2,1.2,0,0,1-.535,1.165,1.732,1.732,0,0,1-1.069.31H10.626a1.358,1.358,0,0,1-1.251-1.133,1.379,1.379,0,0,1,.481-1.251,1.84,1.84,0,0,1,1.3-.31h24.77c.235,0,.278-.086.171-.289a1.519,1.519,0,0,1-.064-1.294c.16-.47.321-.941.47-1.411s.16-.556-.428-.556H11.2a5.442,5.442,0,0,1-.727,0,1.294,1.294,0,0,1-1.133-1.379,1.358,1.358,0,0,1,1.475-1.3H37.106c.278,0,.513,0,.62-.342.385-1.208.845-2.395,1.2-3.613a5.7,5.7,0,0,1,1.507-2.544c3.752-3.7,7.483-7.483,11.182-11.161a1.144,1.144,0,0,0,.374-.887V15.843c0-.577,0-.577-.577-.577H40.891A1.154,1.154,0,0,1,39.576,14.2a3.392,3.392,0,0,1,0-.577V3.314c0-.62,0-.62-.62-.62H3.357c-.609,0-.609,0-.609.62V68.771c0,.609,0,.609.609.609H51.41c.62,0,.62,0,.62-.609V46.845c0-.086,0-.214-.075-.257s-.139.075-.192.139c-.631.62-1.251,1.251-1.871,1.882A7.184,7.184,0,0,1,46.685,50.9c-1.924.545-3.8,1.229-5.7,1.86C40.207,52.982,39.565,53.228,38.87,53.42ZM58.295,26.876a.481.481,0,0,0-.3.192l-.877.877L42.794,42.227c-.192.192-.2.3,0,.492,1.432,1.411,2.844,2.822,4.276,4.276.235.246.374.235.609,0q7.483-7.537,15.052-15.063c.257-.246.289-.417,0-.684l-4.191-4.191a.32.32,0,0,0-.246-.139Zm5.548-5.559a.482.482,0,0,0-.235.171c-1.069,1.069-2.138,2.138-3.154,3.111-.224.224-.2.353,0,.556q2.063,2.053,4.116,4.116c.353.342.4.342.727,0l3.068-3.057c.171-.171.16-.289,0-.449-1.443-1.433-2.865-2.865-4.276-4.276a.514.514,0,0,0-.246-.139ZM50.117,12.529l-7.8-7.74a.705.705,0,0,0,0,.31v6.992c0,.47,0,.481.492.481h6.981a.309.309,0,0,0,.331,0ZM44.772,48.524l-.107-.128-3.207-3.207c-.171-.171-.267-.15-.342.1-.524,1.6-1.069,3.207-1.593,4.789,0,.064-.075.128,0,.192s.15,0,.235,0l1.571-.524L44.6,48.674c.086.032.171.021.171-.107Z" fill="#209adb"></path>
        <path id="Path_12" data-name="Path 12" d="M27.378,62.5H10.658A1.24,1.24,0,0,1,9.4,61.427a1.336,1.336,0,0,1,.492-1.336,1.668,1.668,0,0,1,.951-.289H43.809a1.433,1.433,0,0,1,1.518,1.283,1.358,1.358,0,0,1-1.069,1.347,6.837,6.837,0,0,1-.941.064Z" fill="#209adb"></path>
        <path id="Path_13" data-name="Path 13" d="M19.51,43.8H10.958A1.54,1.54,0,0,1,9.6,43.243a1.368,1.368,0,0,1,1.069-2.2H27.987a1.5,1.5,0,0,1,1.486.8,1.315,1.315,0,0,1-.8,1.839,3.1,3.1,0,0,1-.93.128Z" fill="#209adb"></path>
    </g>
</svg>