<svg xmlns="http://www.w3.org/2000/svg" width="70.242" height="64.491" viewBox="0 0 70.242 64.491">
    <path id="Vector" d="M34.9.012H62.28a7.391,7.391,0,0,1,2.491.38,7.283,7.283,0,0,1,4.223,3.666,6.559,6.559,0,0,1,.747,2.989v49.99a6.6,6.6,0,0,1-1.412,4.01,7.4,7.4,0,0,1-3.749,2.669A5.55,5.55,0,0,1,62.873,64H7.426a7.366,7.366,0,0,1-5.089-1.934,7.249,7.249,0,0,1-2.1-3.4A5.861,5.861,0,0,1,0,56.965V6.975A6.762,6.762,0,0,1,1.768,2.527,7.414,7.414,0,0,1,5.16.308,5.789,5.789,0,0,1,6.9.012Zm-.059,17.379H66.195c.451,0,.451,0,.451-.451V7.13A3.642,3.642,0,0,0,66,5.089,4.128,4.128,0,0,0,62.339,3.1H7.391a4.614,4.614,0,0,0-.985.095A3.927,3.927,0,0,0,4.342,4.306,4,4,0,0,0,3.084,7.331v9.656c0,.368,0,.38.4.392H34.841ZM10.214,31.958h6.774c.285,0,.4,0,.391-.368V20.855c0-.3-.095-.38-.379-.38H3.476c-.368,0-.391,0-.391.391V31.543c0,.392,0,.4.415.4Zm49.29,0h6.75c.285,0,.4,0,.4-.38V20.9c0-.308-.107-.391-.4-.391H52.766c-.391,0-.4,0-.4.415V31.6c0,.415,0,.415.427.415Zm-49.278,3.1H3.511c-.415,0-.427,0-.427.427V45.945c0,.427,0,.439.427.439H16.94c.439,0,.439,0,.439-.451V35.506c0-.439,0-.451-.439-.451Zm49.266,0H52.813c-.451,0-.451,0-.451.427V45.957c0,.415,0,.427.415.427H66.218c.427,0,.427,0,.427-.451V35.494c0-.427,0-.439-.427-.439ZM10.261,49.468H3.452c-.261,0-.368.071-.368.356v7.355a1.566,1.566,0,0,0,0,.332A4.5,4.5,0,0,0,4.2,59.587,4.045,4.045,0,0,0,7.118,60.9h9.8c.415,0,.427,0,.427-.427V49.9c0-.415,0-.427-.427-.427Zm49.243,0H52.813c-.451,0-.451,0-.451.451V60.453c0,.451,0,.451.451.451h9.348a4.366,4.366,0,0,0,2.7-.783,3.844,3.844,0,0,0,1.768-3.132V49.871c0-.4,0-.415-.427-.415ZM26.9,20.487H20.879c-.38,0-.4,0-.4.415V31.579c0,.392,0,.415.4.415H32.9c.392,0,.4,0,.4-.415V20.9c0-.391,0-.4-.4-.4Zm15.92,11.471h5.991c.427,0,.439,0,.439-.451V20.926c0-.427,0-.439-.439-.439H36.893c-.427,0-.427,0-.427.415V31.579c0,.392,0,.4.4.4ZM26.881,49.468H20.89c-.415,0-.415,0-.415.427V60.477c0,.415,0,.427.415.427H32.872c.415,0,.427,0,.427-.427V49.9c0-.415,0-.427-.427-.427ZM42.825,60.9h5.991c.4,0,.415,0,.415-.4V49.824c0-.308-.107-.391-.4-.391H36.893c-.415,0-.415,0-.415.427V60.453c0,.4,0,.415.427.415ZM26.881,46.384h5.991c.415,0,.427,0,.427-.427V35.482c0-.415,0-.427-.427-.427H20.89c-.415,0-.415,0-.415.427V45.957c0,.415,0,.427.415.427Zm15.955,0h6.014c.4,0,.415,0,.415-.4V35.541c0-.451,0-.486-.474-.486h-11.9c-.439,0-.439,0-.439.451V45.933c0,.439,0,.451.427.451Z" transform="translate(0.25 0.24)" fill="#0cd8e7" stroke="#092942" stroke-width="0.5"></path>
</svg>