<svg xmlns="http://www.w3.org/2000/svg" width="65.934" height="71.894" viewBox="0 0 65.934 71.894">
    <g id="BdObiE.tif" transform="translate(0.015 -0.106)">
        <path id="Path_25" data-name="Path 25" d="M.015,60.4V31.618a2.6,2.6,0,0,1,2.711-2.741H9.087c.339,0,.462-.077.493-.447.123-1.032.185-2.079.293-3.08s.185-2.218.293-3.327l.277-3.08c.108-1.109.185-2.2.293-3.311l.277-3.08c.108-1.109.185-2.218.293-3.342s.185-2.048.277-3.08.154-2.064.308-3.08A3.219,3.219,0,0,1,14.462.216a5.205,5.205,0,0,1,2.125,0l.785.092a19.7,19.7,0,0,1,2.7.246c.57,0,1.155.092,1.725.139s1.54.154,2.279.2,1.54.154,2.372.216l2.033.185,4.62.416c.924,0,1.848.169,2.788.231l3.2.293,6.53.585,5.591.539h.539A2.172,2.172,0,0,1,53.288,4c1.4,1.448,2.818,2.9,4.2,4.359a2.11,2.11,0,0,1,.6,1.54,30.583,30.583,0,0,1-.277,3.08c-.077.539-.092,1.094-.123,1.632,0,.8-.139,1.54-.216,2.387a15.661,15.661,0,0,1-.231,2.4.43.43,0,0,0,0,.139,19.23,19.23,0,0,1-.185,2.495c-.077,1.124-.185,2.249-.293,3.373s-.231,2.064-.262,3.08a6.167,6.167,0,0,1-.123.739c-.031.246,0,.416.37.416h1.679a3.08,3.08,0,0,1,2.957,2.171,4.133,4.133,0,0,1,.077,1.063v12.2a1.262,1.262,0,0,0,.431,1.063A5.993,5.993,0,0,1,63.114,47.5a2.3,2.3,0,0,1-.37,2.772.554.554,0,0,0-.092.739,3.3,3.3,0,0,1,.354.832c0,.308.231.4.539.431A2.418,2.418,0,0,1,65.7,53.7a2.558,2.558,0,0,1,.216.97v3.65A2.449,2.449,0,0,1,63.5,60.865a.477.477,0,0,0-.493.37,8.822,8.822,0,0,1-.431,1.047.354.354,0,0,0,0,.447,2.51,2.51,0,0,1,.77,1.54,2.14,2.14,0,0,1-.554,1.756c-.924.97-1.879,1.91-2.834,2.834a2.341,2.341,0,0,1-3.3,0,.57.57,0,0,0-.739-.123,6.022,6.022,0,0,1-1.032.416.385.385,0,0,0-.293.447,2.263,2.263,0,0,1-1.54,2.264,1.88,1.88,0,0,1-.708.139h-4a2.372,2.372,0,0,1-2.279-2.279.632.632,0,0,0-.493-.662,4.191,4.191,0,0,1-.724-.293.6.6,0,0,0-.8,0,2.264,2.264,0,0,1-1.54.631,2.463,2.463,0,0,1-1.879-.709q-.786-.739-1.54-1.54a1.017,1.017,0,0,0-.816-.339H8.7a24.918,24.918,0,0,1-3.866-.169A5.822,5.822,0,0,1,.893,64.607a4.436,4.436,0,0,1-.909-2.418V60.3Zm45.8-30.8h7.269c.6,0,.662,0,.724-.647v-.185A21.013,21.013,0,0,1,54,26.351a15.637,15.637,0,0,1,.154-1.709c.154-.77.139-1.54.216-2.31s.154-1.54.215-2.387a11.5,11.5,0,0,1,.139-1.817,19,19,0,0,0,.246-2.31c.062-.77.123-1.879.262-2.818,0-.431,0-.508-.416-.524h-.324a17.441,17.441,0,0,0-2.372-.246,15.7,15.7,0,0,0-1.91-.169,1.143,1.143,0,0,1-.216,0,2.357,2.357,0,0,1-1.54-2.664l.324-3.5c0-.169,0-.293-.216-.293s-.724-.123-1.094-.123c-.832,0-1.648-.231-2.495-.169a.678.678,0,0,1-.246,0,13.168,13.168,0,0,0-2.2-.216c-.816-.092-1.648-.169-2.48-.216a6.686,6.686,0,0,1-1.663-.139c-1.248-.2-2.51-.231-3.773-.37s-2.095-.185-3.08-.293l-3.373-.293-3.08-.277C23.949,3.4,22.824,3.3,21.7,3.219a22.654,22.654,0,0,0-2.5-.185.216.216,0,0,1-.139,0c-.878-.154-1.756-.169-2.634-.246a5.7,5.7,0,0,1-.878-.108.832.832,0,0,0-.955.632c-.077.493-.123.986-.169,1.54a11.827,11.827,0,0,1-.169,2,17.592,17.592,0,0,0-.216,2.387c-.077.847-.154,1.54-.215,2.31a10.4,10.4,0,0,1-.154,1.817,19.189,19.189,0,0,0-.231,2.31c-.077.77-.108,1.54-.185,2.31s-.169,1.54-.246,2.387c-.108,1.309-.2,2.618-.323,3.927s-.262,2.711-.385,4.066-.231,2.942-.37,4.42-.339,3.08-.416,4.62c0,.524,0,.524.477.524H32.3a.539.539,0,0,0,.539-.323L36.362,31.3a2.741,2.741,0,0,1,2.6-1.54c2.187-.139,4.513-.169,6.853-.169Zm-23.1,34.868H37.086a.231.231,0,0,0,.262-.231,2.311,2.311,0,0,1,.724-1.54.4.4,0,0,0,0-.508,10.157,10.157,0,0,1-.462-1.124.354.354,0,0,0-.37-.262,2.51,2.51,0,0,1-2.526-2.618V54.813a2.634,2.634,0,0,1,.708-1.848,2.557,2.557,0,0,1,1.756-.77c.216,0,.339,0,.416-.277a7.7,7.7,0,0,1,.431-1.032.477.477,0,0,0-.108-.662,2.372,2.372,0,0,1-.108-3.188c.847-.878,1.74-1.725,2.572-2.618a2.479,2.479,0,0,1,3.65-.2.447.447,0,0,0,.555.092c.323-.139.631-.277.97-.385a.508.508,0,0,0,.4-.616,1.54,1.54,0,0,1,.154-.724,2.295,2.295,0,0,1,2.095-1.54h4.081a1.769,1.769,0,0,1,.57.092,2.31,2.31,0,0,1,1.648,2.31.4.4,0,0,0,.293.462,6.3,6.3,0,0,1,1.155.477.416.416,0,0,0,.539-.139,2.326,2.326,0,0,1,1.925-.678c.385,0,.447,0,.447-.4V32.943c0-.6-.169-.786-.785-.786H39a.632.632,0,0,0-.616.354l-3.866,6.9a1.54,1.54,0,0,1-1.54.939H8.609c-.554,0-.554,0-.554.554v23.1c0,.539,0,.539.57.539ZM50.438,43.477H49.083c-.431,0-.462,0-.431.447a4.624,4.624,0,0,1,0,.647,1.386,1.386,0,0,1-1.063,1.355l-.647.216a12.622,12.622,0,0,0-2.079.939,1.278,1.278,0,0,1-1.663-.247l-.585-.585c-.123-.139-.216-.154-.354,0L40.12,48.421a.231.231,0,0,0,0,.37l.647.632a1.186,1.186,0,0,1,.216,1.54A15.4,15.4,0,0,0,39.8,53.827a1.232,1.232,0,0,1-1.386.986h-.585c-.324,0-.447.092-.431.431v2.079c0,.986,0,.986,1.016,1a1.4,1.4,0,0,1,1.371,1,11.506,11.506,0,0,0,1.14,2.818,1.247,1.247,0,0,1-.216,1.54c-.154.169-.308.339-.478.493a.379.379,0,0,0,0,.632c.524.478,1,.986,1.54,1.54s.678.693,1.355,0a1.279,1.279,0,0,1,1.771-.308,14.139,14.139,0,0,0,2.788,1.14,1.324,1.324,0,0,1,.878.862,3.8,3.8,0,0,1,.108,1.247c0,.2,0,.354.293.339h2.865c.2,0,.277-.077.277-.277V68.242a1.186,1.186,0,0,1,.862-1.186,13.338,13.338,0,0,0,2.911-1.2,1.247,1.247,0,0,1,1.54.231l.554.555c.185.216.339.2.524,0l1.679-1.71c.585-.6.662-.477,0-1.109a1.432,1.432,0,0,1-.339-2.048,8.9,8.9,0,0,0,.955-2.341,1.54,1.54,0,0,1,1.663-1.248h.539c.185,0,.293,0,.293-.262V54.982c0-.216-.108-.293-.308-.293h-.8a1.217,1.217,0,0,1-1.247-.878,14.322,14.322,0,0,0-1.217-2.926,1.248,1.248,0,0,1,.247-1.54l.6-.616c.154-.139.139-.246,0-.385l-2.079-2.079a.287.287,0,0,0-.477,0c-.154.154-.323.354-.493.539a1.263,1.263,0,0,1-1.54.293,15.4,15.4,0,0,0-3.08-1.248,1.14,1.14,0,0,1-.816-1.14v-.94c0-.308-.092-.339-.339-.323ZM2.7,47.05V61.743a2.249,2.249,0,0,0,.231,1.186,3.327,3.327,0,0,0,2.557,1.324c.123,0,.139-.092.139-.169a2.848,2.848,0,0,0,0-.354V40.489a2.71,2.71,0,0,1,.246-1.17,2.619,2.619,0,0,1,2.557-1.54c.508,0,.554,0,.554-.554,0-.832.139-1.648.2-2.464s.216-1.91.246-2.88c0-.462,0-.477-.477-.477H3.157c-.616,0-.616,0-.616.616ZM51.039,9.179c0,.246,0,.431.339.431,1.278,0,2.557.277,3.85.308h.246c.046,0,0-.154-.139-.231L52.579,6.823l-.77-.8c-.092-.092-.2-.185-.339-.139s-.123.216-.139.339a3.451,3.451,0,0,1,0,.893c-.4.631-.169,1.371-.447,2.048Z" fill="#0cd8e7"></path>
        <path id="Path_26" data-name="Path 26" d="M45.495,18.42c-.647-.216-1.54,0-2.341-.247a9.969,9.969,0,0,0-1.663-.139c-.8,0-1.54-.17-2.387-.216a13.732,13.732,0,0,1-2.233-.231h-.246c-1.386,0-2.757-.216-4.127-.323-1.54-.108-3.2-.277-4.805-.416s-3.219-.277-4.805-.447a10.334,10.334,0,0,1-2.064-.231,1.386,1.386,0,0,1-.97-1.309,1.278,1.278,0,0,1,1.34-1.155,24.5,24.5,0,0,1,2.587.262h.17a18.054,18.054,0,0,1,2.572.185l3.3.277,3.08.293L36.131,15l3.234.293,3.234.293,3.08.277c1.063.092,1.54.693,1.371,1.663C47.02,18.112,46.5,18.42,45.495,18.42Z" fill="#0cd8e7"></path>
        <path id="Path_27" data-name="Path 27" d="M46.588,23.748A1.217,1.217,0,0,1,45.048,25c-.8-.092-1.54-.123-2.387-.2l-2.526-.246-2-.185-2.557-.2-3.08-.293-3.234-.293-6.53-.57-2.31-.247a1.386,1.386,0,0,1-1.17-1.109,1.34,1.34,0,0,1,.693-1.232.631.631,0,0,1,.277-.077,7.7,7.7,0,0,1,2.064.092h.169a13.508,13.508,0,0,1,2.356.185,16.946,16.946,0,0,1,2.48.246H27.4a22.378,22.378,0,0,1,2.479.185c1.124,0,2.249.185,3.373.293l3.08.277,3.311.293,3.08.277c.939.108,1.894.169,2.834.293a1.186,1.186,0,0,1,1.032,1.263Z" fill="#0cd8e7"></path>
        <path id="Path_28" data-name="Path 28" d="M42.692,56.507a7.578,7.578,0,1,1,.541,2.938A7.623,7.623,0,0,1,42.692,56.507Zm7.593,5.082a5.067,5.067,0,1,0-1.951-.384A5.1,5.1,0,0,0,50.284,61.589Z" fill="#0cd8e7"></path>
    </g>
</svg>