<svg xmlns="http://www.w3.org/2000/svg" xmlns:xlink="http://www.w3.org/1999/xlink" width="63.991" height="64" viewBox="0 0 63.991 64">
    <defs>
        <clipPath id="clip-path">
        <rect id="Rectangle_3" data-name="Rectangle 3" width="63.991" height="64" transform="translate(0.504)" fill="#fff"></rect>
        </clipPath>
    </defs>
    <g id="Bespoke_Solutions" data-name="Bespoke Solutions" transform="translate(-0.504)" clip-path="url(#clip-path)">
        <path id="Path_36" data-name="Path 36" d="M35.828,35.947H62.9a1.554,1.554,0,0,1,1.036.237,1.2,1.2,0,0,1,.544.975v7.648a5.356,5.356,0,0,1-1.212,3.108,7.2,7.2,0,0,1-1.475,1.493,6.631,6.631,0,0,1-2.432,1.124A10.71,10.71,0,0,1,57,50.75H24.888c-.263,0-.342.088-.342.342v6.3a1.239,1.239,0,0,1-.606,1.1L20.787,60.6l-.158.114a.325.325,0,0,0-.061.351c0,.132.149.114.255.114H44.037c.132,0,.316.07.369-.114a.386.386,0,0,0-.2-.457c-.878-.606-1.826-1.2-2.731-1.818-.334-.237-.729-.413-.878-.825a1.2,1.2,0,0,1-.132-.518V54.57A1.2,1.2,0,0,1,41.553,53.3a1.3,1.3,0,0,1,1.51.7,1.845,1.845,0,0,1,.211.878v1.282a.693.693,0,0,0,.377.694c1,.65,1.984,1.335,2.985,1.993a1.458,1.458,0,0,1,.623,1.212,6.269,6.269,0,0,1-.105,1.984,2.634,2.634,0,0,1-1.756,1.87,2.522,2.522,0,0,1-.922.123H20.515A2.722,2.722,0,0,1,17.758,61.4a5.726,5.726,0,0,1,.061-1.756,1.352,1.352,0,0,1,.571-.825q1.5-1.027,3.029-2.028a.606.606,0,0,0,.325-.571v-5c0-.439,0-.448-.439-.448H7.318a6.55,6.55,0,0,1-3.863-1.15,6.708,6.708,0,0,1-2.739-3.74A6.551,6.551,0,0,1,.5,44.235V6.48A6.032,6.032,0,0,1,2.067,2.406,6.454,6.454,0,0,1,4.7.474,5.742,5.742,0,0,1,6.774.053H21.753a1.308,1.308,0,0,1,1.291.694,1.4,1.4,0,0,1-.931,2.037,5.865,5.865,0,0,1-.957.079H7.063A3.679,3.679,0,0,0,4.429,4.03,4.232,4.232,0,0,0,3.376,5.953a1.106,1.106,0,0,0,0,.342V43.823A3.916,3.916,0,0,0,3.9,45.974,3.775,3.775,0,0,0,6.045,47.73a6.479,6.479,0,0,0,1.923.264H57.463a4.32,4.32,0,0,0,2.827-.878,4.118,4.118,0,0,0,1.3-1.94,2.879,2.879,0,0,0,.149-.939v-4.97c0-.4,0-.4-.4-.4H8.855a1.6,1.6,0,0,1-1.537-.729A1.361,1.361,0,0,1,8.424,36.07h27.4Z" fill="#ffb300"></path>
        <path id="Path_37" data-name="Path 37" d="M64.487,18.395v12.24a1.273,1.273,0,0,1-.808,1.308,1.378,1.378,0,0,1-1.914-.966,6.941,6.941,0,0,1-.088-1.273V6.919A4.136,4.136,0,0,0,61.1,4.627a4.03,4.03,0,0,0-2.23-1.677,4.118,4.118,0,0,0-1.282-.079H43.431a1.563,1.563,0,0,1-1.5-.746,1.37,1.37,0,0,1,0-1.352A1.221,1.221,0,0,1,43.071.061h15.48a5.417,5.417,0,0,1,3.31,1.291,6.743,6.743,0,0,1,2.213,2.88,5.47,5.47,0,0,1,.43,1.984v12.2Z" fill="#ffb300"></path>
        <path id="Path_38" data-name="Path 38" d="M33.94,4.891a.93.93,0,0,0,0,.4V31.759a1.9,1.9,0,0,1-.219.957,1.264,1.264,0,0,1-1.308.667,1.282,1.282,0,0,1-1.185-.878,2.765,2.765,0,0,1-.149-.878V5.356c0-.123.07-.316-.053-.369s-.2.141-.29.228L28.514,7.428a4.806,4.806,0,0,1-.457.386A1.379,1.379,0,0,1,25.932,7.3a1.317,1.317,0,0,1,.316-1.616c.536-.588,1.106-1.124,1.668-1.686L31.077.834,31.569.36a1.519,1.519,0,0,1,2.037.105c.966.975,1.94,1.932,2.906,2.9.738.746,1.458,1.493,2.213,2.221a1.844,1.844,0,0,1,.544,1.1A1.484,1.484,0,0,1,38.1,8.1a1.607,1.607,0,0,1-1.4-.518c-.817-.825-1.642-1.642-2.467-2.458A.562.562,0,0,0,33.94,4.891Z" fill="#ffb300"></path>
        <path id="Path_39" data-name="Path 39" d="M13.359,17.429a.641.641,0,0,0,.22.3l2.458,2.458a1.572,1.572,0,0,1,.527,1.352,1.422,1.422,0,0,1-1.036,1.15,1.519,1.519,0,0,1-1.51-.509c-1.414-1.422-2.845-2.827-4.258-4.25a13.172,13.172,0,0,1-1.027-1.071,1.4,1.4,0,0,1,.132-1.844L10.672,13.2l3.082-3.091a2.441,2.441,0,0,1,1.212-.8,1.449,1.449,0,0,1,1.6,1.185,1.756,1.756,0,0,1-.588,1.44L13.6,14.286c-.061.061-.193.114-.149.22s.176.044.263.044h7.9a6.145,6.145,0,0,1,3,.755A4.944,4.944,0,0,1,27,18.193a6.017,6.017,0,0,1,.263,1.756V31.7a1.546,1.546,0,0,1-.676,1.44,1.414,1.414,0,0,1-2.16-1.089V20.265a2.994,2.994,0,0,0-.553-1.984,2.432,2.432,0,0,0-1.317-.79,4.54,4.54,0,0,0-1.238-.1H13.368Z" fill="#ffb300"></path>
        <path id="Path_40" data-name="Path 40" d="M51.624,17.429H43.265a2.933,2.933,0,0,0-1.949.676,1.844,1.844,0,0,0-.65,1.177,8.607,8.607,0,0,0-.149,1.431V32.04A1.414,1.414,0,0,1,39.042,33.4a1.4,1.4,0,0,1-1.256-1.062,4.6,4.6,0,0,1-.088-.983V20.2a5.435,5.435,0,0,1,1.08-3.512,5.962,5.962,0,0,1,1.37-1.194,5.734,5.734,0,0,1,1.94-.738,8.912,8.912,0,0,1,1.932-.149h7.244c.088,0,.219.044.263-.044s-.079-.158-.141-.219l-2.423-2.423a1.678,1.678,0,0,1-.562-1.282,1.387,1.387,0,0,1,1.923-1.2,1.756,1.756,0,0,1,.544.36l3.556,3.582c.518.518,1.036,1.036,1.563,1.545a1.484,1.484,0,0,1,.053,2.2L51.887,21.31c-.307.3-.615.588-.878.878a1.607,1.607,0,0,1-1.106.58,1.37,1.37,0,0,1-1.115-.457,1.466,1.466,0,0,1,.061-1.967l2.45-2.467A1.255,1.255,0,0,0,51.624,17.429Z" fill="#ffb300"></path>
    </g>
</svg>