<svg xmlns="http://www.w3.org/2000/svg" width="80.134" height="72.038" viewBox="0 0 80.134 72.038">
    <g id="EUkk5Q.tif" transform="translate(0.008 -0.022)">
        <path id="Path_5" data-name="Path 5" d="M52.563.022h2.024A10.1,10.1,0,0,1,56.873.3a7.485,7.485,0,0,0,.979,0,9.087,9.087,0,0,1,1.828.37l1.524.414,1.524.5c.762.261,1.5.566,2.177.871a28.293,28.293,0,0,1,4.527,2.459c.762.5,1.458,1.045,2.177,1.589A25.2,25.2,0,0,1,74.721,9.49a22.7,22.7,0,0,1,3.134,4.571,18.7,18.7,0,0,1,1.328,3.2c.261.849.435,1.7.631,2.568a22.1,22.1,0,0,1,.239,5.485,4.355,4.355,0,0,1-.239,1.632,1.889,1.889,0,0,1-.152.892,22.951,22.951,0,0,1-.784,2.721A20.822,20.822,0,0,1,76.7,34.912a17,17,0,0,1-2.329,3.069,2.177,2.177,0,0,0-.566,1.458,16.636,16.636,0,0,0,0,2.329,7.53,7.53,0,0,0,.479,2.177,9.206,9.206,0,0,0,1.154,2.177,13.79,13.79,0,0,0,1.023,1.219,1.7,1.7,0,0,1-.435,2.7,1,1,0,0,1-.435.109,15.714,15.714,0,0,1-2.024,0A7.8,7.8,0,0,1,72,49.908c-.522-.109-1.328-.3-1.981-.5a15.954,15.954,0,0,1-6.486-3.874.5.5,0,0,0-.566,0,5.273,5.273,0,0,0-1.2.348,11.585,11.585,0,0,1-1.72.392,5.7,5.7,0,0,0-.827.2c-.435.131-.892.109-1.349.218a7.01,7.01,0,0,1-1.654.2c-.653,0-1.306.2-1.959.2a.174.174,0,0,0-.2.174c0,.348-.152.675-.152,1.023a5.68,5.68,0,0,1-.239,1.458,5.762,5.762,0,0,1-.348,1.437c-.131.479-.327,1.066-.522,1.589a18.518,18.518,0,0,1-1.11,2.525,23.486,23.486,0,0,1-1.807,2.873A21.552,21.552,0,0,1,47.557,60.9a26.118,26.118,0,0,1-5.05,3.961,23.951,23.951,0,0,1-2.655,1.415,27.606,27.606,0,0,1-3.134,1.24c-.675.218-1.328.414-1.981.566s-1.2.283-1.806.392a14.006,14.006,0,0,0-1.393.24c-.7,0-1.393.218-2.176.218H25.531c-.914,0-1.806-.2-2.7-.261a9.745,9.745,0,0,1-1.567-.239A5.153,5.153,0,0,1,20,68.191a2.634,2.634,0,0,0-.718-.152,17.275,17.275,0,0,1-2.177-.631.7.7,0,0,0-.718.174,16.891,16.891,0,0,1-5.354,3.33,19.7,19.7,0,0,1-2.938.849,14.82,14.82,0,0,1-3.657.283,1.567,1.567,0,0,1-1.371-1.349,1.98,1.98,0,0,1,.609-1.611,8.554,8.554,0,0,0,1.872-2.83,10.21,10.21,0,0,0,.522-1.763A11.492,11.492,0,0,0,6.2,61.379a1.959,1.959,0,0,0-.522-1.35A20.438,20.438,0,0,1,2.764,56,19.872,19.872,0,0,1,1.11,52.411a20.677,20.677,0,0,1-.7-2.525C.261,49.125.152,48.363,0,47.6a1.851,1.851,0,0,1,0-.348V44.271a12.623,12.623,0,0,1,.283-2.394A20.063,20.063,0,0,1,.805,39.7a18.347,18.347,0,0,1,1.132-2.917A19.4,19.4,0,0,1,3.678,33.8a22.29,22.29,0,0,1,2.764-3.308,24.838,24.838,0,0,1,2.786-2.438,28.3,28.3,0,0,1,4.092-2.59,29.2,29.2,0,0,1,3.025-1.371c.827-.3,1.654-.61,2.5-.849l2.024-.544a10.083,10.083,0,0,1,1.11-.239l3-.414a2.178,2.178,0,0,1,.653,0,.283.283,0,0,0,.3-.261c0-.392.131-.784.174-1.2a5.157,5.157,0,0,1,.239-1.262,4.355,4.355,0,0,0,.152-.762,22.81,22.81,0,0,1,2.5-5.964,24.706,24.706,0,0,1,4.179-5.093A22.311,22.311,0,0,1,36.457,4.9a28.837,28.837,0,0,1,4.788-2.568,32.372,32.372,0,0,1,3.461-1.175L46.339.762c.74-.2,1.5-.2,2.176-.414h.239A24.29,24.29,0,0,1,52.563.022ZM27.555,25.161c-.958,0-1.894.109-2.83.174a4.091,4.091,0,0,0-1.262.152,9.977,9.977,0,0,1-1.371.218l-1.654.392a23.493,23.493,0,0,0-2.394.762c-.675.261-1.349.522-2,.827a23.936,23.936,0,0,0-3.265,1.828,23.2,23.2,0,0,0-3.352,2.633,22.4,22.4,0,0,0-2.46,2.721,19.133,19.133,0,0,0-1.7,2.677,17.412,17.412,0,0,0-1.175,2.808,20.377,20.377,0,0,0-.522,1.981,10.208,10.208,0,0,0-.2,1.828,7.161,7.161,0,0,0-.131,1.654c.2,1.11.174,2.176.457,3.33.174.653.326,1.306.544,1.937a16.108,16.108,0,0,0,1.2,2.743,19.8,19.8,0,0,0,2.634,3.809,4.114,4.114,0,0,1,1.2,1.763v.653a9.816,9.816,0,0,1,.261,1.785,11.186,11.186,0,0,1-.152,2.7,4.592,4.592,0,0,1-.2,1.066A11.711,11.711,0,0,1,8.4,67.777s-.152.174,0,.283a.3.3,0,0,0,.326,0l.74-.283a12.146,12.146,0,0,0,2.96-1.48A16.517,16.517,0,0,0,15,64.121a1.459,1.459,0,0,1,1.5-.5c.7.2,1.35.479,2.046.653a13.576,13.576,0,0,0,2,.522c.74,0,1.458.327,2.177.392a25.84,25.84,0,0,0,2.96.283,2.987,2.987,0,0,1,.762,0,5.112,5.112,0,0,0,1.524,0,29.188,29.188,0,0,0,3.069-.261c1.023-.261,1.458-.218,2.177-.37s1.393-.348,2.177-.566a19.741,19.741,0,0,0,2.394-.871,24.523,24.523,0,0,0,4.484-2.5,21.594,21.594,0,0,0,4.68-4.353,18.766,18.766,0,0,0,2.677-4.723,16.917,16.917,0,0,0,.871-2.938,1.932,1.932,0,0,1,.152-.914,19.179,19.179,0,0,0,.261-2.721,1.022,1.022,0,0,0,0-.37,3.83,3.83,0,0,1,0-1.11,7.619,7.619,0,0,0-.239-1.719,13.279,13.279,0,0,0-.566-2.177,18.456,18.456,0,0,0-.849-2.176,19.44,19.44,0,0,0-2.808-4.353,21.6,21.6,0,0,0-3.417-3.2,24.705,24.705,0,0,0-5.986-3.287,20.913,20.913,0,0,0-2.5-.805c-.544-.152-1.11-.283-1.676-.392a17.678,17.678,0,0,0-2.394-.37C29.47,25.248,28.469,25.183,27.555,25.161ZM45.99,28.3a3.994,3.994,0,0,0,.414.435c.435.392.892.784,1.284,1.2a26.112,26.112,0,0,1,2.176,2.634,21.9,21.9,0,0,1,2.046,3.352,19.586,19.586,0,0,1,1.458,3.809,16.616,16.616,0,0,1,.588,3.069,3.376,3.376,0,0,0,.152.675.2.2,0,0,0,.2.152,5.046,5.046,0,0,0,1.284,0,13.334,13.334,0,0,1,1.872-.239c.457,0,.914-.218,1.393-.261a2.612,2.612,0,0,0,.7-.13c.566-.2,1.153-.24,1.719-.435a15.536,15.536,0,0,0,1.611-.522,1.741,1.741,0,0,1,2.177.435,14.082,14.082,0,0,0,5.79,3.7,1.612,1.612,0,0,0,.457.152c.2,0,.3,0,.174-.261a8.84,8.84,0,0,1-.392-.958,9.315,9.315,0,0,1-.5-1.85,14.153,14.153,0,0,1-.261-1.632,12.645,12.645,0,0,1,.326-3.831,2.4,2.4,0,0,1,.544-1.219c.37-.37.718-.784,1.045-1.175a18.833,18.833,0,0,0,1.872-2.656A14.978,14.978,0,0,0,75.5,29.819c.2-.544.392-1.088.566-1.654a11.113,11.113,0,0,0,.348-1.545c.087-.522.13-1.262.2-1.915a5.941,5.941,0,0,0,0-1.241c-.174-1.132-.131-2.285-.414-3.417a20.363,20.363,0,0,0-.87-2.764,19.065,19.065,0,0,0-2.525-4.353A22.808,22.808,0,0,0,68.3,8.576a25.92,25.92,0,0,0-4.767-2.764,29.952,29.952,0,0,0-4.7-1.611,5.159,5.159,0,0,0-.784-.2l-1.219-.174a11.426,11.426,0,0,0-2.416-.283h-.479a9.838,9.838,0,0,0-1.785,0,24.018,24.018,0,0,0-3.134.261,24.94,24.94,0,0,0-2.786.5,23.616,23.616,0,0,0-7.357,2.982,21.072,21.072,0,0,0-3.613,2.742,21.335,21.335,0,0,0-2.938,3.33,20.984,20.984,0,0,0-2.177,4.353c-.174.392-.261.827-.392,1.219a9.968,9.968,0,0,0-.392,1.589c0,.457-.2.892-.218,1.35s0,.37.37.392a9.515,9.515,0,0,1,1.763.2c.762.152,1.524.218,2.285.392s1.872.435,2.786.718a20.164,20.164,0,0,1,3.287,1.284,4.788,4.788,0,0,0,2.329.5H65.906A1.654,1.654,0,0,1,67.3,27.533a1.61,1.61,0,0,1-1.589,1.088H46.121A.938.938,0,0,0,45.99,28.3Z" fill="#fd4f66"></path>
        <path id="Path_6" data-name="Path 6" d="M27.1,50H40.157a1.5,1.5,0,0,1,1.545.979,1.632,1.632,0,0,1-.718,2.177,1.589,1.589,0,0,1-.827.2H14.235a1.633,1.633,0,0,1-1-2.982,1.5,1.5,0,0,1,.936-.3Z" fill="#fd4f66"></path>
        <path id="Path_7" data-name="Path 7" d="M30.211,43.9H20.373a1.632,1.632,0,0,1-1.611-2.176,1.589,1.589,0,0,1,1.393-1.175H40.049a1.5,1.5,0,0,1,1.545,1,1.611,1.611,0,0,1-1.458,2.177Z" fill="#fd4f66"></path>
        <path id="Path_8" data-name="Path 8" d="M14.1,43.9a1.589,1.589,0,0,1-1.632-1.654,1.7,1.7,0,0,1,1.763-1.611,1.741,1.741,0,0,1,1.654,1.676A1.633,1.633,0,0,1,14.1,43.9Z" fill="#fd4f66"></path>
        <path id="Path_9" data-name="Path 9" d="M56.155,18.871h-9.9a1.415,1.415,0,0,1-1.458-.979,1.589,1.589,0,0,1,1.437-2.177H66.1a1.611,1.611,0,0,1,1.545,1.241A1.654,1.654,0,0,1,66.6,18.914a1.349,1.349,0,0,1-.588,0Z" fill="#fd4f66"></path>
        <path id="Path_10" data-name="Path 10" d="M38.459,17.26a1.523,1.523,0,0,1,1.611-1.632,1.654,1.654,0,0,1,1.654,1.611,1.72,1.72,0,0,1-1.654,1.654,1.568,1.568,0,0,1-1.611-1.632Z" fill="#fd4f66"></path>
    </g>
</svg>