<svg xmlns="http://www.w3.org/2000/svg" width="78.868" height="72.084" viewBox="0 0 78.868 72.084">
    <g id="sFIFZM.tif" transform="translate(0.057 0.027)">
        <path id="Path_14" data-name="Path 14" d="M.019,35.651V14.913a4.374,4.374,0,0,1,2.847-4.167,5.881,5.881,0,0,1,1.885-.3H9.577c.471,0,.641-.17.622-.622v-2.3A4.129,4.129,0,0,1,12.858,3.94a4.864,4.864,0,0,1,1.565-.264H25.885c.754,0,.773,0,.754-.716A2.772,2.772,0,0,1,29.618-.019H32.05a2.753,2.753,0,0,1,2.809,1.885,3.578,3.578,0,0,1,0,1.263c0,.377.132.528.509.509a4.94,4.94,0,0,1,2.7.49,4.205,4.205,0,0,1,1,.716.4.4,0,0,0,.622,0A4.846,4.846,0,0,1,43.174,3.62h2.394a1.263,1.263,0,0,1,1.3,1.075,1.207,1.207,0,0,1-1.093,1.414,18.421,18.421,0,0,1-2.885,0,2.225,2.225,0,0,0-1.885,1.056,1.885,1.885,0,0,0-.283,1.112V41.458c0,.264.132.358.377.245a7.24,7.24,0,0,1,2.979-.358H64.214c1.414,0,1.885-.565,1.885-1.885V8.2a1.772,1.772,0,0,0-.98-1.885,2.055,2.055,0,0,0-.962-.113H50.941a4.109,4.109,0,0,1-.83,0,1.188,1.188,0,0,1-1.094-1.357,1.245,1.245,0,0,1,1.3-1.112H64.478a4.223,4.223,0,0,1,4.072,2.96,12.083,12.083,0,0,1,.17,2.187,8.2,8.2,0,0,1,0,.962c0,.622,0,.641.641.66h4.883a4.43,4.43,0,0,1,4.374,2.96,3.467,3.467,0,0,1,.188,1.3v41.4a4.543,4.543,0,0,1-4.789,4.77H49.735c-.66,0-.679,0-.528.679a8.7,8.7,0,0,1,.17,1.188c.132,1.357.4,2.7.528,4.053,0,.717.245,1.433.283,2.168,0,.358.226.509.584.509h3.016a1.263,1.263,0,0,1,1.357,1.225,1.244,1.244,0,0,1-1.075,1.3H24.848a1.244,1.244,0,0,1-1.244-1.3,1.263,1.263,0,0,1,1.282-1.244H27.94c.452,0,.622-.189.66-.641.113-1.376.321-2.734.547-4.091.132-.848.226-1.7.32-2.564a6.668,6.668,0,0,1,.151-.848c.094-.283,0-.452-.32-.452H4.789A4.883,4.883,0,0,1,1.546,59.84a4.034,4.034,0,0,1-1.6-3.2ZM39.4,58.275H74.715a1.621,1.621,0,0,0,1.527-1.32,20.726,20.726,0,0,0,0-3.412c0-.924,0-.924-.924-.924H21.511a4.645,4.645,0,0,1-1.018,0A1.226,1.226,0,0,1,19.683,51c.283-.7.848-.792,1.508-.792H75.544c.792,0,.792,0,.792-.811V14.913a1.772,1.772,0,0,0-1.885-1.885H69.719c-.9,0-.886,0-.9.905V40.138a3.771,3.771,0,0,1-.773,2.149,4.6,4.6,0,0,1-3.94,1.753H43.023a2.168,2.168,0,0,0-1.885.792,2.282,2.282,0,0,0-.471,1.094,1.244,1.244,0,0,1-1.32,1.169,1.3,1.3,0,0,1-1.282-1.112A2.074,2.074,0,0,0,35.708,44.1H16.383a15.591,15.591,0,0,1-2.809-.151,4.091,4.091,0,0,1-3.092-2.338,5.5,5.5,0,0,1-.377-2.639V14.008a4.264,4.264,0,0,1,0-.49c0-.321-.151-.434-.452-.434H4.091a1.489,1.489,0,0,0-1.263.735,2.564,2.564,0,0,0-.339,1.489V49.4c0,.716,0,.716.7.716h13.2a1.188,1.188,0,0,1,.962,1.621,1.414,1.414,0,0,1-1.508.848H2.96c-.32,0-.566,0-.547.471v3.356a2.112,2.112,0,0,0,.509,1.339,1.886,1.886,0,0,0,1.565.49ZM38.1,24.867V8.578a2.186,2.186,0,0,0-.207-1.094,2.244,2.244,0,0,0-2.243-1.225c-.754,0-.773,0-.773.754V20.908a1.716,1.716,0,0,1-2.6,1.508,5.448,5.448,0,0,1-.83-.509.867.867,0,0,0-1.15,0,7.365,7.365,0,0,1-1.075.584,1.6,1.6,0,0,1-1.244.226,1.885,1.885,0,0,1-1.4-1.885V6.863c0-.434,0-.641-.584-.641H14.328a1.584,1.584,0,0,0-.716.113,1.772,1.772,0,0,0-.98,1.885V39.478c0,1.433.566,2,2,2H33.9a9.183,9.183,0,0,1,3.771.377c.207,0,.339,0,.358-.245V24.848Zm1.32,44.606h7.692c.622,0,.622,0,.547-.566-.151-1.188-.358-2.375-.471-3.563s-.377-2.6-.528-3.9c0-.4-.226-.547-.641-.547h-13.2c-.415,0-.566.151-.641.547-.151.811-.226,1.64-.358,2.451-.264,1.64-.434,3.3-.641,4.958,0,.622,0,.622.584.622ZM29.147,11.029v7.937c0,.49.094.584.434.358a2.036,2.036,0,0,1,2.451,0c.207.151.3,0,.3-.17a3.485,3.485,0,0,0,0-.434V3.205c0-.377-.151-.528-.528-.509H29.92c-.735,0-.735,0-.735.716-.056,2.507-.038,5.071-.038,7.635Z" fill="#ffb300"></path>
        <path id="Path_15" data-name="Path 15" d="M54.052,9.351h6.523a2.809,2.809,0,0,1,2.866,2.866v7.541A2.79,2.79,0,0,1,60.5,22.68H47.623a2.809,2.809,0,0,1-2.922-2.9V12.028a2.62,2.62,0,0,1,2.7-2.715Zm0,2.47H47.868c-.471,0-.641.17-.641.622v7.127c0,.471.17.622.641.622H60.2c.471,0,.622-.151.622-.622V12.443c0-.452-.151-.622-.622-.622Z" fill="#ffb300"></path>
        <path id="Path_16" data-name="Path 16" d="M54.071,37.932H45.964a1.885,1.885,0,0,1-.792-.132,1.225,1.225,0,0,1,0-2.394,2.634,2.634,0,0,1,.773,0H62.423a1.357,1.357,0,0,1,1.339,1.339,1.376,1.376,0,0,1-1.414,1.263H54.014Z" fill="#ffb300"></path>
        <path id="Path_17" data-name="Path 17" d="M54.033,32.861h-8.05a2.546,2.546,0,0,1-.98-.207,1.338,1.338,0,0,1-.754-1.169,1.319,1.319,0,0,1,.83-1.112,3.563,3.563,0,0,1,1.093-.151h15.7a3.771,3.771,0,0,1,.641,0A1.282,1.282,0,0,1,63.78,31.5a1.376,1.376,0,0,1-1.4,1.282H54Z" fill="#ffb300"></path>
        <path id="Path_18" data-name="Path 18" d="M54.052,25.244h8.39A1.244,1.244,0,0,1,63.7,26.979a1.414,1.414,0,0,1-1.339.811H45.926a1.452,1.452,0,0,1-1.527-.811,1.188,1.188,0,0,1,.773-1.678,3.228,3.228,0,0,1,.735,0Z" fill="#ffb300"></path>
        <path id="Path_19" data-name="Path 19" d="M25.753,37.932H17.7a2.056,2.056,0,0,1-.886-.17,1.112,1.112,0,0,1-.792-1.15,1.15,1.15,0,0,1,.811-1.188,2.262,2.262,0,0,1,.867-.132H34.086a1.268,1.268,0,0,1,1.4,1.358,1.282,1.282,0,0,1-1.433,1.263h-8.3Z" fill="#ffb300"></path>
        <path id="Path_20" data-name="Path 20" d="M25.716,32.861H17.684a2.4,2.4,0,0,1-.9-.151,1.131,1.131,0,0,1-.754-1.225,1.093,1.093,0,0,1,.848-1.112,3.321,3.321,0,0,1,1.056-.132H33.6a4.135,4.135,0,0,1,.679,0c.886.132,1.244.566,1.207,1.4A1.263,1.263,0,0,1,34.105,32.8h-8.39Z" fill="#ffb300"></path>
        <path id="Path_21" data-name="Path 21" d="M25.791,25.226h8.333c.867,0,1.339.434,1.357,1.188a1.263,1.263,0,0,1-1.32,1.357H17.628a1.735,1.735,0,0,1-.754-.132,1.169,1.169,0,0,1-.848-1.4,1.131,1.131,0,0,1,1.226-1.018Z" fill="#ffb300"></path>
        <path id="Path_22" data-name="Path 22" d="M20,23.02H17.458a1.263,1.263,0,0,1-1.433-1.3c0-.773.528-1.244,1.414-1.244H22.6a1.282,1.282,0,1,1,0,2.545Z" fill="#ffb300"></path>
        <path id="Path_23" data-name="Path 23" d="M20.022,18.25H17.383a1.207,1.207,0,0,1-1.358-1.207A1.244,1.244,0,0,1,17.307,15.7H22.68a1.225,1.225,0,0,1,1.207.754,1.169,1.169,0,0,1-.189,1.357,1.263,1.263,0,0,1-1,.434Z" fill="#ffb300"></path>
        <path id="Path_24" data-name="Path 24" d="M19.984,13.48H17.5c-.962,0-1.452-.4-1.471-1.169a1.282,1.282,0,0,1,1.433-1.376h3.205a7.541,7.541,0,0,1,2.526.151A1.169,1.169,0,0,1,24,12.405a1.188,1.188,0,0,1-1.15,1.075Z" fill="#ffb300"></path>
    </g>
</svg>